<svg width="100" height="100" viewBox="0 0 100 100" fill="none" xmlns="http://www.w3.org/2000/svg">
  <!-- Draw a white background just for the 'N' area -->
  <rect x="20" y="20" width="60" height="60" fill="white"/>
  <path fill-rule="evenodd" clip-rule="evenodd" d="M50 100C77.6138 100 100 77.6138 100 50C100 22.3862 77.6138 0 50 0C22.3862 0 0 22.3862 0 50C0 77.6138 22.3862 100 50 100ZM75.2739 27.5939C71.5323 23.3277 66.4784 21.1938 60.1108 21.1938C56.3692 21.1938 53.0538 21.9816 50.1662 23.5569C47.2785 25.0662 44.98 27.0692 43.2738 29.5631V21.6862H23.9754V76.9231H43.2738V47.2861C43.2738 44.1354 44.0938 41.6739 45.7354 39.9015C47.3769 38.0631 49.6416 37.1446 52.5293 37.1446C55.2862 37.1446 57.4846 38.0631 59.1262 39.9015C60.7677 41.6739 61.5877 44.1354 61.5877 47.2861V76.9231H80.8861V44.7261C80.8861 37.5061 79.0154 31.7954 75.2739 27.5939Z" fill="#2D5489"/>
</svg>

