<svg width="1080" height="1080" viewBox="0 0 1080 1080" fill="none" xmlns="http://www.w3.org/2000/svg">
<!-- <rect width="1080" height="1080" fill="white"/> -->
<rect width="1080" height="1080" fill="none"/>
<path fill-rule="evenodd" clip-rule="evenodd" d="M400.5 540C418.449 540 433 525.449 433 507.5C433 489.551 418.449 475 400.5 475C382.551 475 368 489.551 368 507.5C368 525.449 382.551 540 400.5 540ZM416.928 492.936C414.496 490.163 411.211 488.776 407.072 488.776C404.64 488.776 402.485 489.288 400.608 490.312C398.731 491.293 397.237 492.595 396.128 494.216V489.096H383.584V525H396.128V505.736C396.128 503.688 396.661 502.088 397.728 500.936C398.795 499.741 400.267 499.144 402.144 499.144C403.936 499.144 405.365 499.741 406.432 500.936C407.499 502.088 408.032 503.688 408.032 505.736V525H420.576V504.072C420.576 499.379 419.36 495.667 416.928 492.936Z" fill="#2D5489"/>
<path d="M454.36 491.736C457.464 491.736 459.88 492.776 461.608 494.856C463.368 496.936 464.248 499.752 464.248 503.304V519H453.64V504.648C453.64 503.368 453.288 502.36 452.584 501.624C451.912 500.856 451 500.472 449.848 500.472C448.664 500.472 447.736 500.856 447.064 501.624C446.392 502.36 446.056 503.368 446.056 504.648V519H435.4V491.928H446.056V496.056C446.888 494.776 447.992 493.736 449.368 492.936C450.776 492.136 452.44 491.736 454.36 491.736ZM481.733 519.336C479.013 519.336 476.565 518.776 474.389 517.656C472.213 516.536 470.501 514.936 469.253 512.856C468.037 510.744 467.429 508.28 467.429 505.464C467.429 502.648 468.037 500.2 469.253 498.12C470.501 496.008 472.213 494.392 474.389 493.272C476.565 492.152 479.013 491.592 481.733 491.592C484.453 491.592 486.901 492.152 489.077 493.272C491.253 494.392 492.949 496.008 494.165 498.12C495.413 500.2 496.037 502.648 496.037 505.464C496.037 508.28 495.413 510.744 494.165 512.856C492.949 514.936 491.253 516.536 489.077 517.656C486.901 518.776 484.453 519.336 481.733 519.336ZM481.733 510.12C482.725 510.12 483.557 509.736 484.229 508.968C484.901 508.168 485.237 507 485.237 505.464C485.237 503.928 484.901 502.776 484.229 502.008C483.557 501.208 482.725 500.808 481.733 500.808C480.741 500.808 479.909 501.208 479.237 502.008C478.565 502.776 478.229 503.928 478.229 505.464C478.229 507 478.549 508.168 479.189 508.968C479.861 509.736 480.709 510.12 481.733 510.12ZM528.04 491.928V519H517.384V514.872C516.552 516.152 515.432 517.192 514.024 517.992C512.648 518.792 511 519.192 509.08 519.192C505.976 519.192 503.544 518.152 501.784 516.072C500.056 513.992 499.192 511.176 499.192 507.624V491.928H509.8V506.28C509.8 507.56 510.136 508.584 510.808 509.352C511.512 510.088 512.44 510.456 513.592 510.456C514.776 510.456 515.704 510.088 516.376 509.352C517.048 508.584 517.384 507.56 517.384 506.28V491.928H528.04ZM546.581 508.872L550.901 491.928H562.229L553.205 519H539.909L530.885 491.928H542.213L546.581 508.872ZM591.264 505.224C591.264 505.96 591.216 506.664 591.12 507.336H573.984C574.144 509.672 575.12 510.84 576.912 510.84C578.064 510.84 578.896 510.312 579.408 509.256H590.688C590.304 511.176 589.488 512.904 588.24 514.44C587.024 515.944 585.472 517.144 583.584 518.04C581.728 518.904 579.68 519.336 577.44 519.336C574.752 519.336 572.352 518.776 570.24 517.656C568.16 516.536 566.528 514.936 565.344 512.856C564.192 510.744 563.616 508.28 563.616 505.464C563.616 502.648 564.192 500.2 565.344 498.12C566.528 496.008 568.16 494.392 570.24 493.272C572.352 492.152 574.752 491.592 577.44 491.592C580.128 491.592 582.512 492.152 584.592 493.272C586.704 494.36 588.336 495.928 589.488 497.976C590.672 500.024 591.264 502.44 591.264 505.224ZM580.464 502.68C580.464 501.784 580.176 501.112 579.6 500.664C579.024 500.184 578.304 499.944 577.44 499.944C575.552 499.944 574.448 500.856 574.128 502.68H580.464ZM605.29 483.48V519H594.634V483.48H605.29ZM620.759 483.48V519H610.103V483.48H620.759ZM637.62 519.336C635.06 519.336 632.788 518.92 630.804 518.088C628.852 517.256 627.3 516.104 626.148 514.632C624.996 513.16 624.34 511.496 624.18 509.64H634.404C634.532 510.44 634.868 511.032 635.412 511.416C635.988 511.8 636.708 511.992 637.572 511.992C638.116 511.992 638.548 511.88 638.868 511.656C639.188 511.4 639.348 511.096 639.348 510.744C639.348 510.136 639.012 509.704 638.34 509.448C637.668 509.192 636.532 508.904 634.932 508.584C632.98 508.2 631.364 507.784 630.084 507.336C628.836 506.888 627.732 506.12 626.772 505.032C625.844 503.944 625.38 502.44 625.38 500.52C625.38 498.856 625.812 497.352 626.676 496.008C627.572 494.632 628.884 493.56 630.612 492.792C632.34 491.992 634.436 491.592 636.9 491.592C640.548 491.592 643.396 492.488 645.444 494.28C647.524 496.072 648.772 498.408 649.188 501.288H639.732C639.572 500.552 639.236 499.992 638.724 499.608C638.212 499.192 637.524 498.984 636.66 498.984C636.116 498.984 635.7 499.096 635.412 499.32C635.124 499.512 634.98 499.816 634.98 500.232C634.98 500.776 635.316 501.192 635.988 501.48C636.66 501.736 637.732 502.008 639.204 502.296C641.156 502.68 642.804 503.112 644.148 503.592C645.492 504.072 646.66 504.904 647.652 506.088C648.644 507.24 649.14 508.84 649.14 510.888C649.14 512.488 648.676 513.928 647.748 515.208C646.82 516.488 645.476 517.496 643.716 518.232C641.988 518.968 639.956 519.336 637.62 519.336Z" fill="#2D5489"/>
<path d="M438.262 532.152H441.398V534H435.868V524.172H438.262V532.152ZM452.144 529.968C452.144 530.192 452.13 530.425 452.102 530.668H446.684C446.721 531.153 446.875 531.527 447.146 531.788C447.426 532.04 447.767 532.166 448.168 532.166C448.765 532.166 449.181 531.914 449.414 531.41H451.962C451.831 531.923 451.593 532.385 451.248 532.796C450.912 533.207 450.487 533.529 449.974 533.762C449.461 533.995 448.887 534.112 448.252 534.112C447.487 534.112 446.805 533.949 446.208 533.622C445.611 533.295 445.144 532.829 444.808 532.222C444.472 531.615 444.304 530.906 444.304 530.094C444.304 529.282 444.467 528.573 444.794 527.966C445.13 527.359 445.597 526.893 446.194 526.566C446.791 526.239 447.477 526.076 448.252 526.076C449.008 526.076 449.68 526.235 450.268 526.552C450.856 526.869 451.313 527.322 451.64 527.91C451.976 528.498 452.144 529.184 452.144 529.968ZM449.694 529.338C449.694 528.927 449.554 528.601 449.274 528.358C448.994 528.115 448.644 527.994 448.224 527.994C447.823 527.994 447.482 528.111 447.202 528.344C446.931 528.577 446.763 528.909 446.698 529.338H449.694ZM460.001 531.97V534H458.783C457.915 534 457.238 533.79 456.753 533.37C456.267 532.941 456.025 532.245 456.025 531.284V528.176H455.073V526.188H456.025V524.284H458.419V526.188H459.987V528.176H458.419V531.312C458.419 531.545 458.475 531.713 458.587 531.816C458.699 531.919 458.885 531.97 459.147 531.97H460.001ZM471.175 526.09V528.078H474.381V529.926H471.175V532.082H474.801V534H468.781V524.172H474.801V526.09H471.175ZM482.109 531.76L483.803 526.188H486.351L483.579 534H480.625L477.853 526.188H480.415L482.109 531.76ZM496.963 529.968C496.963 530.192 496.949 530.425 496.921 530.668H491.503C491.54 531.153 491.694 531.527 491.965 531.788C492.245 532.04 492.586 532.166 492.987 532.166C493.584 532.166 494 531.914 494.233 531.41H496.781C496.65 531.923 496.412 532.385 496.067 532.796C495.731 533.207 495.306 533.529 494.793 533.762C494.28 533.995 493.706 534.112 493.071 534.112C492.306 534.112 491.624 533.949 491.027 533.622C490.43 533.295 489.963 532.829 489.627 532.222C489.291 531.615 489.123 530.906 489.123 530.094C489.123 529.282 489.286 528.573 489.613 527.966C489.949 527.359 490.416 526.893 491.013 526.566C491.61 526.239 492.296 526.076 493.071 526.076C493.827 526.076 494.499 526.235 495.087 526.552C495.675 526.869 496.132 527.322 496.459 527.91C496.795 528.498 496.963 529.184 496.963 529.968ZM494.513 529.338C494.513 528.927 494.373 528.601 494.093 528.358C493.813 528.115 493.463 527.994 493.043 527.994C492.642 527.994 492.301 528.111 492.021 528.344C491.75 528.577 491.582 528.909 491.517 529.338H494.513ZM502.86 527.49C503.14 527.061 503.49 526.725 503.91 526.482C504.33 526.23 504.797 526.104 505.31 526.104V528.638H504.652C504.055 528.638 503.607 528.769 503.308 529.03C503.009 529.282 502.86 529.73 502.86 530.374V534H500.466V526.188H502.86V527.49ZM516.674 526.188L511.774 537.71H509.198L510.99 533.734L507.812 526.188H510.486L512.292 531.074L514.084 526.188H516.674ZM532.477 527.336C532.477 527.905 532.346 528.428 532.085 528.904C531.823 529.371 531.422 529.749 530.881 530.038C530.339 530.327 529.667 530.472 528.865 530.472H527.381V534H524.987V524.172H528.865C529.649 524.172 530.311 524.307 530.853 524.578C531.394 524.849 531.8 525.222 532.071 525.698C532.341 526.174 532.477 526.72 532.477 527.336ZM528.683 528.568C529.14 528.568 529.481 528.461 529.705 528.246C529.929 528.031 530.041 527.728 530.041 527.336C530.041 526.944 529.929 526.641 529.705 526.426C529.481 526.211 529.14 526.104 528.683 526.104H527.381V528.568H528.683ZM538.357 527.49C538.637 527.061 538.987 526.725 539.407 526.482C539.827 526.23 540.294 526.104 540.807 526.104V528.638H540.149C539.552 528.638 539.104 528.769 538.805 529.03C538.506 529.282 538.357 529.73 538.357 530.374V534H535.963V526.188H538.357V527.49ZM547.747 534.112C546.982 534.112 546.291 533.949 545.675 533.622C545.069 533.295 544.588 532.829 544.233 532.222C543.888 531.615 543.715 530.906 543.715 530.094C543.715 529.291 543.893 528.587 544.247 527.98C544.602 527.364 545.087 526.893 545.703 526.566C546.319 526.239 547.01 526.076 547.775 526.076C548.541 526.076 549.231 526.239 549.847 526.566C550.463 526.893 550.949 527.364 551.303 527.98C551.658 528.587 551.835 529.291 551.835 530.094C551.835 530.897 551.653 531.606 551.289 532.222C550.935 532.829 550.445 533.295 549.819 533.622C549.203 533.949 548.513 534.112 547.747 534.112ZM547.747 532.04C548.205 532.04 548.592 531.872 548.909 531.536C549.236 531.2 549.399 530.719 549.399 530.094C549.399 529.469 549.241 528.988 548.923 528.652C548.615 528.316 548.233 528.148 547.775 528.148C547.309 528.148 546.921 528.316 546.613 528.652C546.305 528.979 546.151 529.459 546.151 530.094C546.151 530.719 546.301 531.2 546.599 531.536C546.907 531.872 547.29 532.04 547.747 532.04ZM556.535 525.376C556.115 525.376 555.77 525.255 555.499 525.012C555.238 524.76 555.107 524.452 555.107 524.088C555.107 523.715 555.238 523.407 555.499 523.164C555.77 522.912 556.115 522.786 556.535 522.786C556.946 522.786 557.282 522.912 557.543 523.164C557.814 523.407 557.949 523.715 557.949 524.088C557.949 524.452 557.814 524.76 557.543 525.012C557.282 525.255 556.946 525.376 556.535 525.376ZM557.739 535.008C557.739 535.969 557.497 536.66 557.011 537.08C556.526 537.509 555.849 537.724 554.981 537.724H554.043V535.694H554.617C554.879 535.694 555.065 535.643 555.177 535.54C555.289 535.437 555.345 535.269 555.345 535.036V526.188H557.739V535.008ZM569.065 529.968C569.065 530.192 569.051 530.425 569.023 530.668H563.605C563.642 531.153 563.796 531.527 564.067 531.788C564.347 532.04 564.687 532.166 565.089 532.166C565.686 532.166 566.101 531.914 566.335 531.41H568.883C568.752 531.923 568.514 532.385 568.169 532.796C567.833 533.207 567.408 533.529 566.895 533.762C566.381 533.995 565.807 534.112 565.173 534.112C564.407 534.112 563.726 533.949 563.129 533.622C562.531 533.295 562.065 532.829 561.729 532.222C561.393 531.615 561.225 530.906 561.225 530.094C561.225 529.282 561.388 528.573 561.715 527.966C562.051 527.359 562.517 526.893 563.115 526.566C563.712 526.239 564.398 526.076 565.173 526.076C565.929 526.076 566.601 526.235 567.189 526.552C567.777 526.869 568.234 527.322 568.561 527.91C568.897 528.498 569.065 529.184 569.065 529.968ZM566.615 529.338C566.615 528.927 566.475 528.601 566.195 528.358C565.915 528.115 565.565 527.994 565.145 527.994C564.743 527.994 564.403 528.111 564.123 528.344C563.852 528.577 563.684 528.909 563.619 529.338H566.615ZM572.092 530.094C572.092 529.282 572.255 528.573 572.582 527.966C572.918 527.359 573.38 526.893 573.968 526.566C574.565 526.239 575.246 526.076 576.012 526.076C576.992 526.076 577.808 526.333 578.462 526.846C579.124 527.359 579.558 528.083 579.764 529.016H577.216C577.001 528.419 576.586 528.12 575.97 528.12C575.531 528.12 575.181 528.293 574.92 528.638C574.658 528.974 574.528 529.459 574.528 530.094C574.528 530.729 574.658 531.219 574.92 531.564C575.181 531.9 575.531 532.068 575.97 532.068C576.586 532.068 577.001 531.769 577.216 531.172H579.764C579.558 532.087 579.124 532.805 578.462 533.328C577.799 533.851 576.982 534.112 576.012 534.112C575.246 534.112 574.565 533.949 573.968 533.622C573.38 533.295 572.918 532.829 572.582 532.222C572.255 531.615 572.092 530.906 572.092 530.094ZM587.638 531.97V534H586.42C585.552 534 584.876 533.79 584.39 533.37C583.905 532.941 583.662 532.245 583.662 531.284V528.176H582.71V526.188H583.662V524.284H586.056V526.188H587.624V528.176H586.056V531.312C586.056 531.545 586.112 531.713 586.224 531.816C586.336 531.919 586.523 531.97 586.784 531.97H587.638ZM603.488 524.172V526.09H600.884V534H598.49V526.09H595.886V524.172H603.488ZM611.732 526.104C612.628 526.104 613.347 526.403 613.888 527C614.429 527.588 614.7 528.4 614.7 529.436V534H612.32V529.758C612.32 529.235 612.185 528.829 611.914 528.54C611.643 528.251 611.279 528.106 610.822 528.106C610.365 528.106 610.001 528.251 609.73 528.54C609.459 528.829 609.324 529.235 609.324 529.758V534H606.93V523.64H609.324V527.238C609.567 526.893 609.898 526.617 610.318 526.412C610.738 526.207 611.209 526.104 611.732 526.104ZM620.998 527.49C621.278 527.061 621.628 526.725 622.048 526.482C622.468 526.23 622.934 526.104 623.448 526.104V528.638H622.79C622.192 528.638 621.744 528.769 621.446 529.03C621.147 529.282 620.998 529.73 620.998 530.374V534H618.604V526.188H620.998V527.49ZM628.036 525.376C627.616 525.376 627.27 525.255 627 525.012C626.738 524.76 626.608 524.452 626.608 524.088C626.608 523.715 626.738 523.407 627 523.164C627.27 522.912 627.616 522.786 628.036 522.786C628.446 522.786 628.782 522.912 629.044 523.164C629.314 523.407 629.45 523.715 629.45 524.088C629.45 524.452 629.314 524.76 629.044 525.012C628.782 525.255 628.446 525.376 628.036 525.376ZM629.226 526.188V534H626.832V526.188H629.226ZM636.715 531.76L638.409 526.188H640.957L638.185 534H635.231L632.459 526.188H635.021L636.715 531.76ZM651.568 529.968C651.568 530.192 651.554 530.425 651.526 530.668H646.108C646.146 531.153 646.3 531.527 646.57 531.788C646.85 532.04 647.191 532.166 647.592 532.166C648.19 532.166 648.605 531.914 648.838 531.41H651.386C651.256 531.923 651.018 532.385 650.672 532.796C650.336 533.207 649.912 533.529 649.398 533.762C648.885 533.995 648.311 534.112 647.676 534.112C646.911 534.112 646.23 533.949 645.632 533.622C645.035 533.295 644.568 532.829 644.232 532.222C643.896 531.615 643.728 530.906 643.728 530.094C643.728 529.282 643.892 528.573 644.218 527.966C644.554 527.359 645.021 526.893 645.618 526.566C646.216 526.239 646.902 526.076 647.676 526.076C648.432 526.076 649.104 526.235 649.692 526.552C650.28 526.869 650.738 527.322 651.064 527.91C651.4 528.498 651.568 529.184 651.568 529.968ZM649.118 529.338C649.118 528.927 648.978 528.601 648.698 528.358C648.418 528.115 648.068 527.994 647.648 527.994C647.247 527.994 646.906 528.111 646.626 528.344C646.356 528.577 646.188 528.909 646.122 529.338H649.118Z" fill="#2D5489"/>
</svg>
