<svg width="80" height="26" viewBox="0 0 80 26" fill="none" xmlns="http://www.w3.org/2000/svg">
<path fill-rule="evenodd" clip-rule="evenodd" d="M69.5708 15.1009H71.9818H71.9839C72.2361 15.1059 72.4457 14.8976 72.455 14.6326V7.60748C72.455 6.72512 72.4999 5.9283 72.8382 5.13148C73.0705 4.52533 73.6176 4.11724 74.2386 4.08705C75.7808 4.08705 75.766 5.8636 75.7543 7.25927C75.7534 7.37698 75.7524 7.49198 75.7524 7.60298V14.6911C75.7822 14.9185 75.9625 15.091 76.1806 15.1009H78.613C78.8437 15.1059 79.0423 14.9308 79.0776 14.6911V6.47752C79.0776 5.21476 79.0776 3.4568 78.446 2.41237C77.763 1.28692 76.7052 0.875 75.6218 0.875C73.9517 0.875 73.0031 1.72585 72.3265 3.51082H72.2794V1.51426C72.2306 1.30554 72.0555 1.15651 71.8512 1.14961H69.6072C69.3701 1.14348 69.1681 1.32941 69.1426 1.57728V14.6326C69.1456 14.8829 69.333 15.0877 69.5708 15.1009ZM67.2999 8.25349C67.2999 4.13432 65.3578 0.893004 61.7671 0.893004C58.2684 0.893004 56.3264 4.0803 56.3264 8.11619C56.3264 12.1521 58.2449 15.3934 61.7671 15.3934C65.1587 15.3934 67.2999 12.2354 67.2999 8.25349ZM59.8947 7.70429C59.8947 6.11064 60.0082 3.5581 61.7918 3.5581C62.5584 3.5581 63.1001 3.9205 63.372 4.82087C63.6889 5.86304 63.7339 7.18208 63.7339 8.28052C63.7339 9.9552 63.6632 12.7013 61.7683 12.7013C59.894 12.7013 59.8945 9.37182 59.8947 7.75711L59.8947 7.70429ZM14.6489 15.1279H17.0663H17.0685C17.1898 15.1307 17.3073 15.0828 17.3949 14.9945C17.4825 14.9062 17.533 14.7849 17.5352 14.6573V7.74023L17.5352 7.63196C17.5342 6.12795 17.5329 4.13877 19.2054 4.13877C20.7515 4.13877 20.7276 5.88652 20.7083 7.29789V7.29792V7.29795V7.29799V7.29803C20.7062 7.45021 20.7042 7.59849 20.7042 7.74023V14.6595C20.7083 14.9094 20.8951 15.1136 21.1324 15.1279H23.5562C23.6772 15.1301 23.7941 15.0819 23.8813 14.9937C23.9684 14.9055 24.0186 14.7845 24.0209 14.6573V7.74023L24.0207 7.57579C24.0192 6.84292 24.0172 5.85393 24.2478 5.23947C24.483 4.61138 25.0514 4.1909 25.6931 4.17028C26.3933 4.17028 26.935 4.41789 27.1149 5.29574C27.2067 5.71824 27.1948 6.69769 27.1869 7.34718C27.185 7.50046 27.1834 7.63537 27.1834 7.74023V14.6595C27.1865 14.9099 27.3738 15.1147 27.6116 15.1279H30.029C30.1503 15.1307 30.2678 15.0828 30.3554 14.9945C30.443 14.9062 30.4935 14.7849 30.4958 14.6573V6.4212C30.4958 6.22039 30.4991 6.01518 30.5024 5.80771C30.5222 4.57795 30.5433 3.26892 29.8856 2.32904C29.0883 1.26291 27.806 0.73164 26.5312 0.939219C25.2564 1.1468 24.1871 2.06096 23.734 3.33069C23.0552 1.68077 22.0852 0.913214 20.595 0.913214C19.1047 0.913214 17.9977 1.68077 17.4111 3.33069H17.3661V1.62675C17.3533 1.38389 17.1689 1.18997 16.9379 1.17657H14.6832C14.4342 1.17398 14.2288 1.38089 14.2207 1.64251V14.6978C14.2426 14.9327 14.4247 15.1155 14.6489 15.1279ZM10.4437 15.2268C10.2845 15.372 10.0557 15.3963 9.87204 15.2876C9.18695 14.6884 8.9804 14.3645 8.66321 13.8671L8.66321 13.8671L8.66313 13.8669L8.66299 13.8667C8.60849 13.7813 8.55072 13.6907 8.4867 13.5927C7.15703 15.0153 6.21705 15.4407 4.49768 15.4407C2.46142 15.4407 0.876953 14.1194 0.876953 11.4768C0.876953 9.41273 1.94754 8.01041 3.44637 7.32163C4.55312 6.81107 6.02982 6.6526 7.3065 6.51559C7.54388 6.49012 7.77434 6.46539 7.99423 6.43927V6.11064C7.99423 6.04791 7.99471 5.98399 7.9952 5.91922C7.99943 5.35888 8.00414 4.73502 7.70089 4.26489C7.4054 3.7967 6.84442 3.60537 6.34338 3.60537C5.42053 3.60537 4.59832 4.10283 4.39705 5.13149C4.37154 5.37145 4.1959 5.56348 3.96881 5.59968L1.64349 5.33182C1.52746 5.31435 1.42331 5.24765 1.35533 5.14726C1.28736 5.04688 1.26149 4.92159 1.28378 4.80061C1.82121 1.8114 4.39063 0.90878 6.69239 0.90878C7.87004 0.90878 9.4074 1.23741 10.3324 2.17379C11.4183 3.24253 11.4115 4.64162 11.4042 6.17059L11.4042 6.17091C11.4036 6.29704 11.403 6.42404 11.403 6.55182V10.5112C11.403 11.5775 11.7793 12.1079 12.1758 12.6666C12.2228 12.733 12.2702 12.7998 12.3173 12.8679C12.4714 13.093 12.5057 13.3743 12.3173 13.5432C11.8227 13.9776 10.9448 14.7789 10.463 15.2313L10.4437 15.2268ZM8.00538 9.02777L8.00545 9.15103C8.00631 10.0873 8.00703 10.8812 7.55359 11.7289C7.16818 12.4447 6.55794 12.8858 5.87705 12.8858C4.94992 12.8858 4.4082 12.143 4.4082 11.0401C4.4082 8.87471 6.25604 8.4808 8.00538 8.4808V9.02777ZM43.876 12.6573L43.8764 12.658C43.9234 12.7243 43.9707 12.7909 44.0177 12.8589C44.1804 13.093 44.2147 13.3676 44.007 13.5229C43.5124 13.9573 42.6345 14.7609 42.1527 15.2111C41.9925 15.3543 41.7645 15.3776 41.581 15.2696C40.893 14.6678 40.6892 14.3487 40.3674 13.8448C40.3137 13.7606 40.2567 13.6713 40.1935 13.5747C38.866 14.9972 37.9196 15.4227 36.2067 15.4227C34.1704 15.4227 32.5859 14.1014 32.5859 11.4611C32.5859 9.39473 33.6501 7.99241 35.1661 7.30363C36.2752 6.79112 37.7602 6.6334 39.0406 6.4974L39.0406 6.49739L39.0407 6.49739C39.273 6.47271 39.4986 6.44875 39.7139 6.42352V6.10164C39.7139 6.03922 39.7144 5.97562 39.7149 5.91118C39.7191 5.35061 39.7238 4.72652 39.4184 4.25814C39.1315 3.78995 38.5598 3.59637 38.0609 3.59637C37.1381 3.59637 36.3202 4.09383 36.1167 5.12249C36.0905 5.3621 35.9152 5.55375 35.6885 5.59068L33.3439 5.32508C33.227 5.30822 33.122 5.24142 33.0535 5.14044C32.985 5.03947 32.9591 4.91326 32.9821 4.79161C33.5216 1.80015 36.091 0.89978 38.3928 0.89978C39.5683 0.89978 41.1057 1.22841 42.0328 2.16479C43.1209 3.228 43.1133 4.61626 43.1049 6.13742C43.1042 6.27156 43.1034 6.40674 43.1034 6.54282V10.5044C43.1034 11.5686 43.4796 12.0988 43.876 12.6573ZM37.5899 12.8724C38.2687 12.8724 38.8811 12.4312 39.2644 11.7177C39.7194 10.8654 39.7189 10.0677 39.7183 9.11976L39.7183 9.01883V8.4696C37.9689 8.4696 36.1211 8.86126 36.1211 11.0289C36.1211 12.1296 36.6628 12.8724 37.5899 12.8724ZM46.0643 1.59749V3.45675C46.0631 3.58429 46.1116 3.70679 46.1986 3.7957C46.2856 3.8846 46.4035 3.93213 46.5247 3.92719H50.6872L45.9145 11.1301C45.6966 11.5165 45.5937 11.9625 45.619 12.4109V14.3129C45.619 14.5875 45.908 14.9004 46.1843 14.7451C48.8166 13.3102 51.9469 13.3044 54.5841 14.7293C54.886 14.8936 55.1708 14.5763 55.1708 14.3017V12.3028C55.1627 11.9972 54.9992 11.7197 54.7425 11.5758C53.3529 10.7542 51.7363 10.5134 50.2075 10.5516L54.3272 4.37062C54.7104 3.81689 54.9245 3.46575 54.9245 3.19789V1.59749C54.9258 1.47036 54.8776 1.34822 54.791 1.25938C54.7045 1.17055 54.5872 1.12275 54.4663 1.12705H46.5161C46.3951 1.11991 46.2769 1.16701 46.1908 1.25669C46.1046 1.34636 46.0587 1.4702 46.0643 1.59749Z" fill="black"/>
<path fill-rule="evenodd" clip-rule="evenodd" d="M50.0447 23.4292C50.595 21.9908 51.8197 18.7675 51.2373 17.9865H51.2416C50.6618 17.2037 47.4071 17.6145 45.9432 17.7992L45.9401 17.7996C45.4947 17.8559 45.4262 17.4485 45.8266 17.1536C48.426 15.2336 52.6848 15.7828 53.1794 16.4311C53.674 17.0793 53.0445 21.5677 50.61 23.7105C50.2353 24.0392 49.8777 23.8636 50.0447 23.4292ZM32.5512 25.6487C38.2125 25.6487 44.8052 23.7691 49.3466 20.2465V20.2532C50.0982 19.659 49.4537 18.7856 48.6871 19.1278C43.73 21.3258 38.4087 22.4733 33.0287 22.5041C25.5646 22.5041 18.3445 20.3523 12.5034 16.7801C11.9916 16.4672 11.6105 17.0187 12.0387 17.4216C17.6621 22.7552 24.9774 25.6892 32.5512 25.6487Z" fill="#FF9900"/>
</svg>
