<svg width="101" height="69" viewBox="0 0 101 69" fill="none" xmlns="http://www.w3.org/2000/svg">
<rect width="100.05" height="69" rx="10.35" fill="white"/>
<path fill-rule="evenodd" clip-rule="evenodd" d="M27.6145 23.9866C26.7654 24.9983 25.4068 25.7963 24.0482 25.6823C23.8784 24.3143 24.5435 22.8609 25.3219 21.9632C26.171 20.923 27.657 20.182 28.8599 20.125C29.0014 21.5499 28.4495 22.9464 27.6145 23.9866ZM28.8442 25.953C27.6473 25.8837 26.5552 26.3154 25.673 26.6642C25.1054 26.8887 24.6247 27.0787 24.2589 27.0787C23.8485 27.0787 23.348 26.8785 22.7859 26.6537C22.0495 26.3591 21.2076 26.0224 20.3247 26.0385C18.301 26.067 16.4187 27.2212 15.3856 29.0594C13.2628 32.7357 14.8337 38.179 16.8858 41.1713C17.8905 42.6533 19.0935 44.2777 20.6785 44.2207C21.3758 44.1942 21.8774 43.9799 22.3965 43.7581C22.9942 43.5028 23.615 43.2375 24.5844 43.2375C25.5202 43.2375 26.1139 43.4958 26.6838 43.7438C27.2257 43.9796 27.7461 44.2061 28.5187 44.1922C30.1603 44.1637 31.1934 42.7103 32.1982 41.2283C33.2825 39.6378 33.759 38.0855 33.8314 37.85L33.8398 37.8227C33.8381 37.821 33.8248 37.8149 33.8013 37.804L33.8012 37.804L33.8011 37.8039L33.8011 37.8039C33.4386 37.6368 30.6681 36.3597 30.6415 32.9352C30.6148 30.0608 32.839 28.6044 33.1891 28.3752C33.2104 28.3612 33.2248 28.3518 33.2313 28.3469C31.8161 26.238 29.6084 26.01 28.8442 25.953ZM40.209 44.0354V21.8206H48.4879C52.7618 21.8206 55.7479 24.7845 55.7479 29.1163C55.7479 33.4481 52.7052 36.4405 48.3747 36.4405H43.6338V44.0354H40.209ZM43.6326 24.7276H47.581C50.5529 24.7276 52.2512 26.3235 52.2512 29.1306C52.2512 31.9377 50.5529 33.5479 47.5669 33.5479H43.6326V24.7276ZM67.056 41.3708C66.1502 43.1092 64.1548 44.2064 62.0037 44.2064C58.8195 44.2064 56.5977 42.297 56.5977 39.4187C56.5977 36.5688 58.7488 34.9301 62.7255 34.6879L66.9994 34.4314V33.2059C66.9994 31.3963 65.8248 30.4131 63.7303 30.4131C62.0037 30.4131 60.7442 31.3108 60.4895 32.6787H57.4043C57.5034 29.8003 60.1923 27.7057 63.8293 27.7057C67.7494 27.7057 70.2968 29.7718 70.2968 32.9779V44.0354H67.1267V41.3708H67.056ZM62.9216 41.5703C61.096 41.5703 59.9355 40.6869 59.9355 39.3332C59.9355 37.9367 61.0536 37.1245 63.1905 36.9963L66.9974 36.754V38.008C66.9974 40.0884 65.2425 41.5703 62.9216 41.5703ZM80.8115 44.9046C79.4387 48.7947 77.8678 50.0772 74.528 50.0772C74.2732 50.0772 73.4241 50.0487 73.226 49.9917V47.327C73.4383 47.3555 73.9619 47.384 74.2308 47.384C75.745 47.384 76.5942 46.7428 77.1178 45.0756L77.4291 44.0924L71.6268 27.9194H75.2073L79.2406 41.0431H79.3113L83.3447 27.9194H86.826L80.8115 44.9046Z" fill="black"/>
</svg>
