<svg width="76" height="27" viewBox="0 0 76 27" fill="none" xmlns="http://www.w3.org/2000/svg">
<path fill-rule="evenodd" clip-rule="evenodd" d="M0.688983 19.6374L0.688984 19.6374C0.758045 19.245 0.824962 18.8647 0.901886 18.4844C1.22767 16.7643 1.55572 15.0465 1.88377 13.3286L1.8838 13.3285C2.21184 11.6107 2.53988 9.8929 2.86566 8.17285C2.91091 7.955 2.97426 7.80976 3.19145 7.77345C4.88373 7.5193 6.58506 7.33775 8.27735 7.76438C9.75244 8.12746 10.7841 9.17133 10.956 10.3967C11.309 12.8385 9.88818 14.79 7.77962 15.489C6.66651 15.8521 5.5353 15.9428 4.386 15.8339C4.11451 15.8067 4.03306 15.8793 3.98782 16.1425C3.74347 17.4769 3.49008 18.8021 3.22764 20.1274C3.20955 20.2363 3.11 20.4088 3.04665 20.4088C2.43163 20.4223 1.82669 20.4207 1.19793 20.419C0.984783 20.4184 0.768897 20.4178 0.54895 20.4178C0.598719 20.1504 0.644299 19.8914 0.688981 19.6375L0.688983 19.6374ZM4.43958 13.6736C4.6165 13.6736 4.78785 13.6783 4.95481 13.6828H4.95482C5.30879 13.6924 5.64306 13.7015 5.96897 13.6645C6.91013 13.5647 7.66125 13.1381 8.08658 12.2394C8.56621 11.2228 8.22233 10.1426 7.31736 9.82493C6.67484 9.598 6.01421 9.64339 5.35359 9.73416C5.27214 9.74324 5.16355 9.87032 5.14545 9.95201C5.01884 10.6174 4.89224 11.2857 4.76088 11.979L4.76055 11.9808L4.75993 11.9841C4.65685 12.5282 4.55083 13.0878 4.43958 13.6736ZM16.1869 19.1215L16.1869 19.1215C15.9037 19.4388 15.6347 19.7401 15.3193 19.9821C14.3691 20.7174 13.2831 20.8807 12.1881 20.3724C11.1021 19.8732 10.6587 18.9019 10.6135 17.7582C10.5139 15.3528 11.3555 13.3649 13.3736 11.9852C14.6405 11.1138 16.0975 10.8506 17.6088 10.9323C18.1087 10.9617 18.6048 11.0488 19.1021 11.136L19.1021 11.136C19.37 11.1829 19.6381 11.23 19.9074 11.2681C20.2151 11.3135 20.2604 11.486 20.2061 11.7492C20.1336 12.1278 20.0604 12.5059 19.9872 12.8839L19.987 12.8848L19.9869 12.8853L19.9868 12.886L19.9867 12.8864L19.9866 12.887C19.7125 14.3022 19.439 15.7142 19.2106 17.1319C19.0796 17.9434 19.0274 18.7746 18.9756 19.5976L18.9756 19.5977C18.9666 19.7413 18.9576 19.8846 18.9482 20.0275C18.9301 20.318 18.8577 20.436 18.559 20.4269C17.998 20.4087 17.4369 20.4087 16.8758 20.4269C16.5862 20.436 16.4867 20.327 16.5138 20.0456C16.5397 19.7347 16.5563 19.4144 16.5735 19.0816C16.5805 18.9482 16.5875 18.8127 16.5953 18.675C16.4521 18.8244 16.318 18.9746 16.1869 19.1215L16.1869 19.1215L16.1869 19.1215L16.1869 19.1215L16.1869 19.1215ZM17.2262 13.0653C16.3484 12.8202 15.6154 12.9927 15 13.5101C13.8417 14.4904 13.3168 15.7612 13.4163 17.2771C13.4435 17.74 13.6245 18.1848 14.1131 18.3845C14.6018 18.5842 15.0453 18.4389 15.4253 18.1122C15.6516 17.9125 15.8688 17.6855 16.0317 17.4314C16.67 16.4542 16.8443 15.3519 17.0214 14.2322C17.0829 13.8438 17.1446 13.4534 17.2262 13.0653ZM30.0519 18.1485C30.5496 19.7461 31.9161 20.6356 34.3142 20.6356C35.9613 20.5902 37.5993 19.6553 38.6219 17.731C39.1648 16.6962 39.3639 15.5888 39.2915 14.4269C39.2282 13.3104 38.7848 12.3664 37.8798 11.6947C36.9296 10.9867 35.8436 10.8414 34.6853 10.9685C30.812 11.4042 29.2283 15.5161 30.0519 18.1485ZM32.6291 16.815C32.6301 16.7688 32.6311 16.7229 32.6311 16.678C32.6582 15.6341 32.9116 14.6629 33.5361 13.8005C33.8166 13.4193 34.1695 13.1288 34.6401 13.0199C35.5994 12.8021 36.3867 13.3558 36.4772 14.3996C36.5858 15.6795 36.2781 16.8595 35.4727 17.8852C35.165 18.2665 34.7759 18.5297 34.2781 18.5751C33.3822 18.6568 32.7035 18.0486 32.6311 17.0955C32.625 17.0045 32.6271 16.9094 32.6291 16.8156V16.8156V16.8155V16.8155V16.8155L32.6291 16.815ZM41.4442 11.1593H43.7428C43.7066 11.6494 43.6704 12.1214 43.6251 12.6025C43.709 12.5242 43.79 12.4469 43.8695 12.3711L43.8695 12.371L43.8695 12.371L43.8696 12.3709C44.0389 12.2094 44.201 12.0547 44.3672 11.9127C45.2631 11.132 46.2857 10.7871 47.4712 10.9777C48.4486 11.1411 49.1273 11.8582 49.2359 12.8658C49.3539 13.9142 49.1579 14.9311 48.9622 15.9458L48.9192 16.1698C48.8401 16.5806 48.7619 16.9914 48.6838 17.4018L48.6828 17.4066C48.5109 18.3098 48.3392 19.2117 48.159 20.1093C48.1319 20.2273 47.9961 20.3997 47.9056 20.4088C47.1273 20.427 46.3491 20.4179 45.5708 20.4088C45.5447 20.4088 45.5186 20.3947 45.479 20.3732C45.4636 20.3649 45.4462 20.3554 45.426 20.3453C45.5708 19.5919 45.7156 18.8294 45.8513 18.0669C46.0595 16.896 46.2586 15.7341 46.4396 14.5632C46.4758 14.3635 46.4577 14.1547 46.4305 13.955C46.3581 13.2561 45.8423 12.9384 45.1726 13.1472C44.521 13.3559 44.1319 13.8642 43.8152 14.427C43.3446 15.253 43.1817 16.1698 43.0188 17.0866V17.0866C42.978 17.3138 42.9376 17.5405 42.8973 17.7669L42.8973 17.7672L42.8972 17.7676C42.7588 18.5453 42.6209 19.32 42.4668 20.1002C42.4396 20.2182 42.3039 20.3997 42.2134 20.4088C41.5788 20.4305 40.9384 20.4292 40.2557 20.4277C40.0817 20.4273 39.9049 20.427 39.7247 20.427C40.322 17.3045 40.8831 14.2455 41.4442 11.1593ZM54.4951 18.5207C53.5358 18.4027 52.8933 17.731 52.9566 16.787C53.1567 16.787 53.3558 16.7901 53.5539 16.7931C53.947 16.7991 54.3362 16.8051 54.7213 16.787C55.6534 16.7325 56.5674 16.5782 57.4181 16.1516C58.504 15.607 59.0108 14.7083 58.9294 13.5374C58.8479 12.3483 58.2054 11.486 57.0561 11.141C55.3367 10.6237 53.753 10.9867 52.4046 12.1395C50.7666 13.5374 50.1512 15.3891 50.3865 17.5041C50.5494 19.0018 51.3639 20.0729 52.848 20.4541C54.4408 20.8626 56.0063 20.6448 57.5176 20.0275C57.6262 19.9821 57.7529 19.8097 57.7439 19.7007C57.7222 19.2578 57.6773 18.8148 57.6324 18.3718C57.6212 18.2611 57.6099 18.1504 57.5991 18.0396C57.5694 18.0396 57.5473 18.0381 57.5303 18.0369C57.5059 18.0352 57.4921 18.0343 57.4814 18.0396C57.3819 18.0759 57.2823 18.1123 57.1918 18.1486C56.3231 18.4844 55.4272 18.6296 54.4951 18.5207ZM55.8976 14.4996C55.3456 14.7901 53.9157 14.9625 53.2189 14.8173C53.3637 13.61 54.6397 12.666 55.7166 12.9293C56.0786 13.02 56.341 13.2106 56.4044 13.601C56.4677 13.9822 56.2777 14.2999 55.8976 14.4996ZM61.9958 16.8233C61.9143 17.7129 62.5478 18.3937 63.5161 18.5207C64.4211 18.6297 65.2899 18.4935 66.1405 18.1849C66.2189 18.1554 66.2947 18.1259 66.3779 18.0935C66.4483 18.0661 66.524 18.0366 66.6111 18.0034C66.6288 18.1953 66.6484 18.3835 66.6677 18.569L66.6678 18.57L66.6678 18.5703C66.7078 18.9545 66.7467 19.3276 66.7649 19.7008C66.774 19.8097 66.6473 19.9822 66.5478 20.0275C65.0093 20.6629 63.4256 20.8808 61.8057 20.436C60.3487 20.0366 59.5886 18.9746 59.4076 17.5223C59.1813 15.6615 59.661 13.9822 60.9551 12.6025C62.3487 11.1229 64.0591 10.5964 66.0319 11.1411C67.2355 11.4769 67.8781 12.3483 67.9504 13.5737C68.0229 14.7719 67.4799 15.6705 66.3487 16.197C65.2084 16.7235 63.9958 16.8052 62.765 16.8324C62.5207 16.8233 62.2673 16.8233 61.9958 16.8233ZM62.2578 14.8899C62.4225 14.8796 62.5842 14.8715 62.7436 14.8635C63.145 14.8433 63.5318 14.8239 63.9139 14.7719C64.2759 14.7265 64.6379 14.6176 64.9637 14.4633C65.3166 14.309 65.4886 13.9822 65.4343 13.5828C65.38 13.2016 65.1266 13.0201 64.7737 12.9293C63.7058 12.6388 62.3755 13.6191 62.2578 14.8899ZM68.4475 18.5207C68.3299 19.1379 68.2213 19.7461 68.1036 20.4178C68.2849 20.4178 68.4635 20.4182 68.6401 20.4185C69.3364 20.42 70.0005 20.4214 70.6647 20.3997C70.728 20.3997 70.8276 20.2272 70.8457 20.1183C70.938 19.6649 71.0236 19.2093 71.1092 18.7538C71.2669 17.9143 71.4245 17.0752 71.624 16.2514C72.0674 14.4179 72.8185 13.7825 74.6013 13.5465C74.6737 13.5374 74.7913 13.4557 74.8094 13.3921C74.923 12.8704 75.0248 12.3448 75.1303 11.7994C75.1845 11.5193 75.2398 11.234 75.2981 10.9413C73.5787 10.7598 72.6194 11.7583 71.7868 12.9837L71.8001 12.8075C71.841 12.2652 71.8827 11.7133 71.9316 11.132C71.7435 11.132 71.5589 11.1314 71.3768 11.1308C70.8408 11.1291 70.3274 11.1275 69.814 11.141C69.7416 11.1501 69.6059 11.3135 69.5968 11.4133C69.4037 13.7463 68.9467 16.0281 68.4901 18.3083L68.4475 18.5207Z" fill="black"/>
<path fill-rule="evenodd" clip-rule="evenodd" d="M44.4879 0.208578C44.3963 0.184325 44.3046 0.160072 44.213 0.139648C43.9325 0.139648 43.6519 0.139648 43.3533 0.148726C43.2513 0.169188 43.1493 0.191495 43.0465 0.213984C42.9212 0.241375 42.7947 0.269036 42.6655 0.293959C41.2809 0.557194 39.9778 1.03828 38.7199 1.67368C35.9959 3.05339 33.5525 4.84158 31.3625 6.95654C29.9055 8.35441 28.4938 9.81582 27.1273 11.3135C24.7291 13.9459 22.6749 16.8415 21.0369 20.0185C20.1953 21.6614 19.4351 23.3407 19.0912 25.1652C19.0279 25.501 19.1365 25.8913 19.2451 26.2272C19.2903 26.3633 19.5437 26.4632 19.7156 26.5177C19.7609 26.5358 19.8966 26.3089 19.96 26.1818C19.9825 26.1326 20.0055 26.0821 20.029 26.0306C20.422 25.1696 20.9535 24.0053 21.4146 23.2345C22.3919 21.6007 23.1635 20.3362 24.2586 18.784C26.0142 16.2878 28.0655 13.8386 30.2193 11.6783C32.2555 9.63594 34.2946 7.80979 36.8557 6.43007C38.0321 5.80375 39.2357 5.18651 40.4665 4.67819C42.5931 3.79771 44.8103 3.19863 47.0908 2.86277C47.3351 2.82647 47.6609 2.63585 47.7424 2.43615C47.8148 2.25461 47.6428 1.90968 47.4709 1.73722C46.7741 1.02013 45.9596 0.475501 44.946 0.312113C44.7933 0.28942 44.6406 0.248999 44.4879 0.208578ZM23.7696 12.5934C24.204 11.4134 24.4212 10.188 24.4483 8.91716C24.4362 8.78101 24.4262 8.64485 24.4161 8.50869C24.396 8.23638 24.3759 7.96407 24.3397 7.69176C24.0954 5.58587 23.1904 3.79768 21.7515 2.26366C21.5796 2.09119 21.3443 1.95504 21.109 1.87334C20.8737 1.78257 20.7199 1.91873 20.738 2.19104C20.7384 2.19679 20.7388 2.20255 20.7393 2.20831C20.757 2.43898 20.7753 2.67788 20.8194 2.90813C20.883 3.27086 20.9461 3.63402 21.0093 3.99744C21.2339 5.28917 21.4591 6.584 21.7063 7.8733C21.9506 9.17132 22.2221 10.4603 22.5117 11.7401C22.6112 12.1486 22.7741 12.5571 22.9732 12.9383C23.1271 13.2288 23.3443 13.2015 23.5433 12.9383C23.6338 12.8294 23.7243 12.7205 23.7696 12.5934Z" fill="#FC461E"/>
</svg>
