<svg width="101" height="69" viewBox="0 0 101 69" fill="none" xmlns="http://www.w3.org/2000/svg">
<rect x="0.199219" width="100.05" height="69" rx="10.35" fill="white"/>
<path fill-rule="evenodd" clip-rule="evenodd" d="M31.107 45.5926H25.1852L20.7446 28.1532C20.5339 27.351 20.0863 26.6418 19.428 26.3075C17.7852 25.4675 15.9749 24.799 14 24.4619V23.7904H23.5395C24.8561 23.7904 25.8435 24.799 26.0081 25.9704L28.3121 38.55L34.231 23.7904H39.9882L31.107 45.5926ZM43.2801 45.5926H37.6875L42.2927 23.7904H47.8853L43.2801 45.5926ZM55.1192 29.8303C55.2838 28.656 56.2712 27.9846 57.4232 27.9846C59.2335 27.816 61.2055 28.1532 62.8512 28.9903L63.8387 24.2962C62.193 23.6248 60.3826 23.2876 58.7398 23.2876C53.3118 23.2876 49.362 26.3075 49.362 30.4988C49.362 33.6873 52.1598 35.3615 54.1346 36.37C56.2712 37.3757 57.0941 38.0471 56.9295 39.0528C56.9295 40.5613 55.2838 41.2327 53.6409 41.2327C51.666 41.2327 49.6912 40.7299 47.8837 39.8899L46.8963 44.5869C48.8712 45.424 51.0077 45.7612 52.9826 45.7612C59.0689 45.9268 62.8512 42.9098 62.8512 38.3814C62.8512 32.6787 55.1192 32.3445 55.1192 29.8303ZM82.4247 45.5926L77.9841 23.7904H73.2144C72.2269 23.7904 71.2395 24.4619 70.9104 25.4675L62.6875 45.5926H68.4446L69.5938 42.407H76.6675L77.3258 45.5926H82.4247ZM74.0385 29.6617L75.6813 37.8786H71.0762L74.0385 29.6617Z" fill="#172B85"/>
</svg>
