<svg width="476" height="424" viewBox="0 0 476 424" fill="none" xmlns="http://www.w3.org/2000/svg">
<rect width="476" height="424" rx="30" fill="white"/>
<path d="M140.03 203.818H141.442L144.266 208.571H144.385L147.209 203.818H148.621L144.942 209.804V214H143.709V209.804L140.03 203.818ZM151.305 214.179C150.821 214.179 150.382 214.088 149.988 213.906C149.594 213.72 149.28 213.453 149.048 213.105C148.816 212.754 148.7 212.33 148.7 211.832C148.7 211.395 148.786 211.04 148.959 210.768C149.131 210.493 149.362 210.278 149.65 210.122C149.938 209.966 150.256 209.85 150.604 209.774C150.956 209.695 151.309 209.632 151.663 209.585C152.127 209.526 152.504 209.481 152.792 209.451C153.084 209.418 153.296 209.363 153.428 209.287C153.564 209.211 153.632 209.078 153.632 208.889V208.849C153.632 208.359 153.498 207.978 153.229 207.706C152.964 207.434 152.562 207.298 152.021 207.298C151.461 207.298 151.022 207.421 150.704 207.666C150.386 207.911 150.162 208.173 150.033 208.452L148.919 208.054C149.118 207.59 149.383 207.229 149.714 206.97C150.049 206.708 150.414 206.526 150.808 206.423C151.206 206.317 151.597 206.264 151.982 206.264C152.227 206.264 152.509 206.294 152.827 206.354C153.148 206.41 153.458 206.528 153.756 206.707C154.058 206.886 154.308 207.156 154.507 207.517C154.706 207.878 154.805 208.362 154.805 208.969V214H153.632V212.966H153.572C153.493 213.132 153.36 213.309 153.175 213.498C152.989 213.687 152.742 213.848 152.434 213.98C152.126 214.113 151.75 214.179 151.305 214.179ZM151.484 213.125C151.948 213.125 152.339 213.034 152.658 212.852C152.979 212.669 153.221 212.434 153.384 212.146C153.549 211.857 153.632 211.554 153.632 211.236V210.162C153.582 210.222 153.473 210.276 153.304 210.326C153.138 210.372 152.946 210.414 152.727 210.45C152.512 210.483 152.301 210.513 152.096 210.54C151.894 210.563 151.73 210.583 151.604 210.599C151.299 210.639 151.014 210.704 150.749 210.793C150.487 210.879 150.275 211.01 150.112 211.186C149.953 211.358 149.874 211.594 149.874 211.892C149.874 212.3 150.024 212.608 150.326 212.817C150.631 213.022 151.017 213.125 151.484 213.125ZM157.429 216.864C157.23 216.864 157.053 216.847 156.897 216.814C156.741 216.784 156.634 216.754 156.574 216.724L156.872 215.69C157.157 215.763 157.409 215.79 157.628 215.77C157.847 215.75 158.041 215.652 158.21 215.477C158.382 215.304 158.539 215.024 158.682 214.636L158.901 214.04L156.077 206.364H157.35L159.458 212.449H159.537L161.645 206.364H162.918L159.676 215.114C159.53 215.508 159.35 215.835 159.134 216.093C158.919 216.355 158.669 216.549 158.384 216.675C158.102 216.801 157.784 216.864 157.429 216.864ZM165.222 216.864C165.023 216.864 164.846 216.847 164.69 216.814C164.534 216.784 164.427 216.754 164.367 216.724L164.665 215.69C164.95 215.763 165.202 215.79 165.421 215.77C165.64 215.75 165.834 215.652 166.003 215.477C166.175 215.304 166.332 215.024 166.475 214.636L166.694 214.04L163.87 206.364H165.143L167.251 212.449H167.33L169.438 206.364H170.711L167.469 215.114C167.323 215.508 167.143 215.835 166.927 216.093C166.712 216.355 166.462 216.549 166.177 216.675C165.895 216.801 165.577 216.864 165.222 216.864ZM173.015 216.864C172.816 216.864 172.639 216.847 172.483 216.814C172.327 216.784 172.22 216.754 172.16 216.724L172.458 215.69C172.743 215.763 172.995 215.79 173.214 215.77C173.433 215.75 173.627 215.652 173.796 215.477C173.968 215.304 174.125 215.024 174.268 214.636L174.487 214.04L171.663 206.364H172.936L175.044 212.449H175.123L177.231 206.364H178.504L175.262 215.114C175.116 215.508 174.936 215.835 174.72 216.093C174.505 216.355 174.255 216.549 173.97 216.675C173.688 216.801 173.37 216.864 173.015 216.864ZM181.324 212.608L181.244 213.145C181.188 213.523 181.102 213.927 180.986 214.358C180.873 214.789 180.755 215.195 180.633 215.576C180.51 215.957 180.409 216.26 180.33 216.486H179.435C179.478 216.274 179.534 215.994 179.604 215.646C179.673 215.298 179.743 214.908 179.812 214.477C179.885 214.05 179.945 213.612 179.991 213.165L180.051 212.608H181.324ZM188.191 216.864C187.992 216.864 187.815 216.847 187.659 216.814C187.503 216.784 187.395 216.754 187.336 216.724L187.634 215.69C187.919 215.763 188.171 215.79 188.39 215.77C188.608 215.75 188.802 215.652 188.971 215.477C189.144 215.304 189.301 215.024 189.444 214.636L189.662 214.04L186.839 206.364H188.111L190.219 212.449H190.299L192.407 206.364H193.68L190.438 215.114C190.292 215.508 190.112 215.835 189.896 216.093C189.681 216.355 189.43 216.549 189.145 216.675C188.864 216.801 188.546 216.864 188.191 216.864ZM198.057 214.159C197.368 214.159 196.763 213.995 196.242 213.667C195.725 213.339 195.321 212.88 195.029 212.29C194.741 211.7 194.597 211.01 194.597 210.222C194.597 209.426 194.741 208.732 195.029 208.138C195.321 207.545 195.725 207.085 196.242 206.756C196.763 206.428 197.368 206.264 198.057 206.264C198.746 206.264 199.35 206.428 199.867 206.756C200.387 207.085 200.791 207.545 201.08 208.138C201.371 208.732 201.517 209.426 201.517 210.222C201.517 211.01 201.371 211.7 201.08 212.29C200.791 212.88 200.387 213.339 199.867 213.667C199.35 213.995 198.746 214.159 198.057 214.159ZM198.057 213.105C198.581 213.105 199.012 212.971 199.35 212.702C199.688 212.434 199.938 212.081 200.1 211.643C200.263 211.206 200.344 210.732 200.344 210.222C200.344 209.711 200.263 209.236 200.1 208.795C199.938 208.354 199.688 207.998 199.35 207.726C199.012 207.454 198.581 207.318 198.057 207.318C197.533 207.318 197.102 207.454 196.764 207.726C196.426 207.998 196.176 208.354 196.014 208.795C195.851 209.236 195.77 209.711 195.77 210.222C195.77 210.732 195.851 211.206 196.014 211.643C196.176 212.081 196.426 212.434 196.764 212.702C197.102 212.971 197.533 213.105 198.057 213.105ZM208.121 210.878V206.364H209.294V214H208.121V212.707H208.041C207.862 213.095 207.584 213.425 207.206 213.697C206.828 213.965 206.351 214.099 205.774 214.099C205.297 214.099 204.873 213.995 204.501 213.786C204.13 213.574 203.839 213.256 203.626 212.832C203.414 212.404 203.308 211.866 203.308 211.216V206.364H204.482V211.136C204.482 211.693 204.637 212.137 204.949 212.469C205.264 212.8 205.665 212.966 206.152 212.966C206.444 212.966 206.74 212.891 207.042 212.742C207.347 212.593 207.602 212.364 207.808 212.056C208.016 211.748 208.121 211.355 208.121 210.878ZM216.554 209.406V214H215.381V203.818H216.554V207.557H216.653C216.832 207.162 217.101 206.849 217.459 206.617C217.82 206.382 218.3 206.264 218.9 206.264C219.421 206.264 219.876 206.369 220.268 206.577C220.659 206.783 220.962 207.099 221.177 207.527C221.396 207.951 221.506 208.491 221.506 209.148V214H220.332V209.227C220.332 208.621 220.175 208.152 219.86 207.82C219.548 207.486 219.116 207.318 218.562 207.318C218.178 207.318 217.833 207.399 217.528 207.562C217.227 207.724 216.988 207.961 216.812 208.273C216.64 208.584 216.554 208.962 216.554 209.406ZM225.899 214.179C225.415 214.179 224.976 214.088 224.582 213.906C224.187 213.72 223.874 213.453 223.642 213.105C223.41 212.754 223.294 212.33 223.294 211.832C223.294 211.395 223.38 211.04 223.553 210.768C223.725 210.493 223.955 210.278 224.244 210.122C224.532 209.966 224.85 209.85 225.198 209.774C225.549 209.695 225.902 209.632 226.257 209.585C226.721 209.526 227.097 209.481 227.386 209.451C227.677 209.418 227.889 209.363 228.022 209.287C228.158 209.211 228.226 209.078 228.226 208.889V208.849C228.226 208.359 228.092 207.978 227.823 207.706C227.558 207.434 227.155 207.298 226.615 207.298C226.055 207.298 225.616 207.421 225.298 207.666C224.979 207.911 224.756 208.173 224.626 208.452L223.513 208.054C223.712 207.59 223.977 207.229 224.308 206.97C224.643 206.708 225.008 206.526 225.402 206.423C225.8 206.317 226.191 206.264 226.575 206.264C226.821 206.264 227.102 206.294 227.42 206.354C227.742 206.41 228.052 206.528 228.35 206.707C228.652 206.886 228.902 207.156 229.101 207.517C229.3 207.878 229.399 208.362 229.399 208.969V214H228.226V212.966H228.166C228.087 213.132 227.954 213.309 227.768 213.498C227.583 213.687 227.336 213.848 227.028 213.98C226.719 214.113 226.343 214.179 225.899 214.179ZM226.078 213.125C226.542 213.125 226.933 213.034 227.251 212.852C227.573 212.669 227.815 212.434 227.977 212.146C228.143 211.857 228.226 211.554 228.226 211.236V210.162C228.176 210.222 228.067 210.276 227.898 210.326C227.732 210.372 227.54 210.414 227.321 210.45C227.106 210.483 226.895 210.513 226.69 210.54C226.487 210.563 226.323 210.583 226.197 210.599C225.893 210.639 225.607 210.704 225.342 210.793C225.08 210.879 224.868 211.01 224.706 211.186C224.547 211.358 224.467 211.594 224.467 211.892C224.467 212.3 224.618 212.608 224.92 212.817C225.225 213.022 225.611 213.125 226.078 213.125ZM237.512 206.364L234.688 214H233.494L230.671 206.364H231.943L234.051 212.449H234.131L236.239 206.364H237.512ZM241.988 214.159C241.253 214.159 240.618 213.997 240.084 213.672C239.554 213.344 239.145 212.886 238.856 212.3C238.571 211.71 238.429 211.024 238.429 210.241C238.429 209.459 238.571 208.77 238.856 208.173C239.145 207.573 239.546 207.106 240.059 206.771C240.577 206.433 241.18 206.264 241.869 206.264C242.267 206.264 242.66 206.33 243.047 206.463C243.435 206.596 243.788 206.811 244.106 207.109C244.425 207.404 244.678 207.795 244.867 208.283C245.056 208.77 245.15 209.37 245.15 210.082V210.58H239.264V209.565H243.957C243.957 209.134 243.871 208.75 243.699 208.412C243.53 208.074 243.288 207.807 242.973 207.612C242.661 207.416 242.293 207.318 241.869 207.318C241.402 207.318 240.997 207.434 240.656 207.666C240.318 207.895 240.058 208.193 239.876 208.561C239.693 208.929 239.602 209.323 239.602 209.744V210.42C239.602 210.997 239.702 211.486 239.9 211.887C240.103 212.285 240.383 212.588 240.741 212.797C241.099 213.002 241.515 213.105 241.988 213.105C242.297 213.105 242.575 213.062 242.824 212.976C243.076 212.886 243.293 212.754 243.475 212.578C243.657 212.399 243.798 212.177 243.898 211.912L245.031 212.23C244.912 212.615 244.711 212.953 244.43 213.244C244.148 213.533 243.8 213.758 243.385 213.92C242.971 214.08 242.506 214.159 241.988 214.159ZM251.032 214V203.818H252.205V207.577H252.305C252.391 207.444 252.51 207.275 252.662 207.07C252.818 206.861 253.04 206.675 253.329 206.513C253.62 206.347 254.015 206.264 254.512 206.264C255.155 206.264 255.722 206.425 256.212 206.746C256.703 207.068 257.086 207.524 257.361 208.114C257.636 208.704 257.773 209.4 257.773 210.202C257.773 211.01 257.636 211.711 257.361 212.305C257.086 212.895 256.704 213.352 256.217 213.677C255.73 213.998 255.168 214.159 254.532 214.159C254.041 214.159 253.648 214.078 253.354 213.915C253.059 213.75 252.831 213.562 252.672 213.354C252.513 213.142 252.391 212.966 252.305 212.827H252.165V214H251.032ZM252.185 210.182C252.185 210.759 252.27 211.267 252.439 211.708C252.608 212.146 252.855 212.489 253.18 212.737C253.504 212.982 253.902 213.105 254.373 213.105C254.863 213.105 255.273 212.976 255.601 212.717C255.932 212.455 256.181 212.104 256.346 211.663C256.515 211.219 256.6 210.725 256.6 210.182C256.6 209.645 256.517 209.161 256.351 208.73C256.189 208.296 255.942 207.953 255.611 207.701C255.282 207.446 254.87 207.318 254.373 207.318C253.895 207.318 253.494 207.439 253.17 207.681C252.845 207.92 252.599 208.254 252.434 208.685C252.268 209.113 252.185 209.612 252.185 210.182ZM262.77 214.159C262.034 214.159 261.399 213.997 260.866 213.672C260.335 213.344 259.926 212.886 259.638 212.3C259.353 211.71 259.21 211.024 259.21 210.241C259.21 209.459 259.353 208.77 259.638 208.173C259.926 207.573 260.327 207.106 260.841 206.771C261.358 206.433 261.961 206.264 262.65 206.264C263.048 206.264 263.441 206.33 263.829 206.463C264.216 206.596 264.569 206.811 264.888 207.109C265.206 207.404 265.459 207.795 265.648 208.283C265.837 208.77 265.932 209.37 265.932 210.082V210.58H260.045V209.565H264.738C264.738 209.134 264.652 208.75 264.48 208.412C264.311 208.074 264.069 207.807 263.754 207.612C263.443 207.416 263.075 207.318 262.65 207.318C262.183 207.318 261.779 207.434 261.437 207.666C261.099 207.895 260.839 208.193 260.657 208.561C260.474 208.929 260.383 209.323 260.383 209.744V210.42C260.383 210.997 260.483 211.486 260.682 211.887C260.884 212.285 261.164 212.588 261.522 212.797C261.88 213.002 262.296 213.105 262.77 213.105C263.078 213.105 263.356 213.062 263.605 212.976C263.857 212.886 264.074 212.754 264.256 212.578C264.439 212.399 264.579 212.177 264.679 211.912L265.812 212.23C265.693 212.615 265.492 212.953 265.211 213.244C264.929 213.533 264.581 213.758 264.167 213.92C263.752 214.08 263.287 214.159 262.77 214.159ZM270.918 214.159C270.182 214.159 269.548 213.997 269.014 213.672C268.484 213.344 268.074 212.886 267.786 212.3C267.501 211.71 267.358 211.024 267.358 210.241C267.358 209.459 267.501 208.77 267.786 208.173C268.074 207.573 268.475 207.106 268.989 206.771C269.506 206.433 270.109 206.264 270.799 206.264C271.197 206.264 271.589 206.33 271.977 206.463C272.365 206.596 272.718 206.811 273.036 207.109C273.354 207.404 273.608 207.795 273.797 208.283C273.986 208.77 274.08 209.37 274.08 210.082V210.58H268.194V209.565H272.887C272.887 209.134 272.801 208.75 272.628 208.412C272.459 208.074 272.217 207.807 271.903 207.612C271.591 207.416 271.223 207.318 270.799 207.318C270.331 207.318 269.927 207.434 269.586 207.666C269.248 207.895 268.988 208.193 268.805 208.561C268.623 208.929 268.532 209.323 268.532 209.744V210.42C268.532 210.997 268.631 211.486 268.83 211.887C269.032 212.285 269.312 212.588 269.67 212.797C270.028 213.002 270.444 213.105 270.918 213.105C271.226 213.105 271.505 213.062 271.753 212.976C272.005 212.886 272.222 212.754 272.405 212.578C272.587 212.399 272.728 212.177 272.827 211.912L273.961 212.23C273.841 212.615 273.641 212.953 273.359 213.244C273.077 213.533 272.729 213.758 272.315 213.92C271.901 214.08 271.435 214.159 270.918 214.159ZM277.038 209.406V214H275.865V206.364H276.998V207.557H277.098C277.277 207.169 277.549 206.857 277.913 206.622C278.278 206.384 278.748 206.264 279.325 206.264C279.842 206.264 280.295 206.37 280.682 206.582C281.07 206.791 281.372 207.109 281.587 207.537C281.803 207.961 281.91 208.498 281.91 209.148V214H280.737V209.227C280.737 208.627 280.581 208.16 280.27 207.825C279.958 207.487 279.531 207.318 278.987 207.318C278.613 207.318 278.278 207.399 277.983 207.562C277.691 207.724 277.461 207.961 277.292 208.273C277.123 208.584 277.038 208.962 277.038 209.406ZM294.236 206.364L291.412 214H290.219L287.395 206.364H288.668L290.776 212.449H290.855L292.963 206.364H294.236ZM298.713 214.159C297.977 214.159 297.343 213.997 296.809 213.672C296.279 213.344 295.869 212.886 295.581 212.3C295.296 211.71 295.153 211.024 295.153 210.241C295.153 209.459 295.296 208.77 295.581 208.173C295.869 207.573 296.27 207.106 296.784 206.771C297.301 206.433 297.904 206.264 298.594 206.264C298.991 206.264 299.384 206.33 299.772 206.463C300.16 206.596 300.513 206.811 300.831 207.109C301.149 207.404 301.403 207.795 301.592 208.283C301.781 208.77 301.875 209.37 301.875 210.082V210.58H295.989V209.565H300.682C300.682 209.134 300.596 208.75 300.423 208.412C300.254 208.074 300.012 207.807 299.697 207.612C299.386 207.416 299.018 207.318 298.594 207.318C298.126 207.318 297.722 207.434 297.381 207.666C297.043 207.895 296.782 208.193 296.6 208.561C296.418 208.929 296.327 209.323 296.327 209.744V210.42C296.327 210.997 296.426 211.486 296.625 211.887C296.827 212.285 297.107 212.588 297.465 212.797C297.823 213.002 298.239 213.105 298.713 213.105C299.021 213.105 299.3 213.062 299.548 212.976C299.8 212.886 300.017 212.754 300.2 212.578C300.382 212.399 300.523 212.177 300.622 211.912L301.756 212.23C301.636 212.615 301.436 212.953 301.154 213.244C300.872 213.533 300.524 213.758 300.11 213.92C299.696 214.08 299.23 214.159 298.713 214.159ZM303.66 214V206.364H304.793V207.517H304.873C305.012 207.139 305.264 206.833 305.629 206.597C305.993 206.362 306.404 206.244 306.862 206.244C306.948 206.244 307.055 206.246 307.185 206.249C307.314 206.253 307.412 206.258 307.478 206.264V207.457C307.438 207.447 307.347 207.433 307.205 207.413C307.065 207.389 306.918 207.378 306.762 207.378C306.391 207.378 306.059 207.456 305.768 207.612C305.479 207.764 305.251 207.976 305.082 208.248C304.916 208.516 304.833 208.823 304.833 209.168V214H303.66ZM308.869 214V206.364H310.042V214H308.869ZM309.465 205.091C309.237 205.091 309.039 205.013 308.874 204.857C308.711 204.701 308.63 204.514 308.63 204.295C308.63 204.077 308.711 203.889 308.874 203.734C309.039 203.578 309.237 203.5 309.465 203.5C309.694 203.5 309.89 203.578 310.052 203.734C310.218 203.889 310.301 204.077 310.301 204.295C310.301 204.514 310.218 204.701 310.052 204.857C309.89 205.013 309.694 205.091 309.465 205.091ZM315.592 206.364V207.358H311.475V206.364H315.592ZM312.708 214V205.31C312.708 204.872 312.811 204.508 313.016 204.216C313.222 203.924 313.489 203.705 313.817 203.56C314.145 203.414 314.491 203.341 314.856 203.341C315.144 203.341 315.379 203.364 315.562 203.411C315.744 203.457 315.88 203.5 315.969 203.54L315.631 204.554C315.572 204.534 315.489 204.509 315.383 204.479C315.28 204.45 315.144 204.435 314.975 204.435C314.587 204.435 314.307 204.532 314.135 204.728C313.966 204.924 313.881 205.21 313.881 205.588V214H312.708ZM317.236 214V206.364H318.409V214H317.236ZM317.833 205.091C317.604 205.091 317.407 205.013 317.241 204.857C317.079 204.701 316.997 204.514 316.997 204.295C316.997 204.077 317.079 203.889 317.241 203.734C317.407 203.578 317.604 203.5 317.833 203.5C318.061 203.5 318.257 203.578 318.419 203.734C318.585 203.889 318.668 204.077 318.668 204.295C318.668 204.514 318.585 204.701 318.419 204.857C318.257 205.013 318.061 205.091 317.833 205.091ZM323.76 214.159C323.024 214.159 322.389 213.997 321.856 213.672C321.326 213.344 320.916 212.886 320.628 212.3C320.343 211.71 320.2 211.024 320.2 210.241C320.2 209.459 320.343 208.77 320.628 208.173C320.916 207.573 321.317 207.106 321.831 206.771C322.348 206.433 322.951 206.264 323.641 206.264C324.038 206.264 324.431 206.33 324.819 206.463C325.207 206.596 325.56 206.811 325.878 207.109C326.196 207.404 326.45 207.795 326.638 208.283C326.827 208.77 326.922 209.37 326.922 210.082V210.58H321.036V209.565H325.729C325.729 209.134 325.643 208.75 325.47 208.412C325.301 208.074 325.059 207.807 324.744 207.612C324.433 207.416 324.065 207.318 323.641 207.318C323.173 207.318 322.769 207.434 322.428 207.666C322.089 207.895 321.829 208.193 321.647 208.561C321.465 208.929 321.374 209.323 321.374 209.744V210.42C321.374 210.997 321.473 211.486 321.672 211.887C321.874 212.285 322.154 212.588 322.512 212.797C322.87 213.002 323.286 213.105 323.76 213.105C324.068 213.105 324.347 213.062 324.595 212.976C324.847 212.886 325.064 212.754 325.246 212.578C325.429 212.399 325.57 212.177 325.669 211.912L326.803 212.23C326.683 212.615 326.483 212.953 326.201 213.244C325.919 213.533 325.571 213.758 325.157 213.92C324.743 214.08 324.277 214.159 323.76 214.159ZM331.59 214.159C330.954 214.159 330.392 213.998 329.905 213.677C329.418 213.352 329.036 212.895 328.761 212.305C328.486 211.711 328.349 211.01 328.349 210.202C328.349 209.4 328.486 208.704 328.761 208.114C329.036 207.524 329.419 207.068 329.91 206.746C330.4 206.425 330.967 206.264 331.61 206.264C332.107 206.264 332.5 206.347 332.788 206.513C333.08 206.675 333.302 206.861 333.455 207.07C333.61 207.275 333.731 207.444 333.817 207.577H333.917V203.818H335.09V214H333.957V212.827H333.817C333.731 212.966 333.609 213.142 333.45 213.354C333.29 213.562 333.063 213.75 332.768 213.915C332.473 214.078 332.081 214.159 331.59 214.159ZM331.749 213.105C332.22 213.105 332.618 212.982 332.942 212.737C333.267 212.489 333.514 212.146 333.683 211.708C333.852 211.267 333.937 210.759 333.937 210.182C333.937 209.612 333.854 209.113 333.688 208.685C333.522 208.254 333.277 207.92 332.952 207.681C332.628 207.439 332.227 207.318 331.749 207.318C331.252 207.318 330.838 207.446 330.506 207.701C330.178 207.953 329.931 208.296 329.766 208.73C329.603 209.161 329.522 209.645 329.522 210.182C329.522 210.725 329.605 211.219 329.771 211.663C329.94 212.104 330.188 212.455 330.516 212.717C330.848 212.976 331.259 213.105 331.749 213.105ZM202.052 231.074L200.998 231.372C200.932 231.196 200.834 231.026 200.705 230.86C200.579 230.691 200.407 230.552 200.188 230.442C199.969 230.333 199.689 230.278 199.348 230.278C198.88 230.278 198.491 230.386 198.179 230.602C197.871 230.814 197.717 231.084 197.717 231.412C197.717 231.704 197.823 231.934 198.035 232.103C198.247 232.272 198.579 232.413 199.03 232.526L200.163 232.804C200.846 232.97 201.355 233.223 201.689 233.565C202.024 233.903 202.191 234.339 202.191 234.872C202.191 235.31 202.066 235.701 201.814 236.045C201.565 236.39 201.217 236.662 200.77 236.861C200.322 237.06 199.802 237.159 199.209 237.159C198.43 237.159 197.785 236.99 197.275 236.652C196.764 236.314 196.441 235.82 196.305 235.17L197.419 234.892C197.525 235.303 197.725 235.611 198.02 235.817C198.319 236.022 198.708 236.125 199.189 236.125C199.736 236.125 200.17 236.009 200.491 235.777C200.816 235.542 200.978 235.26 200.978 234.932C200.978 234.667 200.886 234.445 200.7 234.266C200.514 234.083 200.229 233.947 199.845 233.858L198.572 233.56C197.873 233.394 197.359 233.137 197.031 232.789C196.706 232.438 196.544 231.999 196.544 231.472C196.544 231.041 196.665 230.66 196.907 230.328C197.152 229.997 197.485 229.737 197.906 229.548C198.33 229.359 198.811 229.264 199.348 229.264C200.103 229.264 200.697 229.43 201.128 229.761C201.562 230.093 201.87 230.53 202.052 231.074ZM208.77 233.878V229.364H209.943V237H208.77V235.707H208.691C208.512 236.095 208.233 236.425 207.855 236.697C207.478 236.965 207 237.099 206.424 237.099C205.946 237.099 205.522 236.995 205.151 236.786C204.78 236.574 204.488 236.256 204.276 235.832C204.064 235.404 203.958 234.866 203.958 234.216V229.364H205.131V234.136C205.131 234.693 205.287 235.137 205.598 235.469C205.913 235.8 206.314 235.966 206.801 235.966C207.093 235.966 207.39 235.891 207.691 235.742C207.996 235.593 208.251 235.364 208.457 235.056C208.666 234.748 208.77 234.355 208.77 233.878ZM215.195 237.159C214.479 237.159 213.862 236.99 213.345 236.652C212.828 236.314 212.43 235.848 212.152 235.255C211.874 234.662 211.734 233.984 211.734 233.222C211.734 232.446 211.877 231.762 212.162 231.168C212.45 230.572 212.851 230.106 213.365 229.771C213.882 229.433 214.485 229.264 215.175 229.264C215.712 229.264 216.196 229.364 216.627 229.562C217.057 229.761 217.41 230.04 217.685 230.398C217.961 230.756 218.131 231.173 218.198 231.651H217.024C216.935 231.303 216.736 230.994 216.428 230.726C216.123 230.454 215.712 230.318 215.195 230.318C214.737 230.318 214.336 230.437 213.992 230.676C213.65 230.911 213.383 231.245 213.191 231.675C213.002 232.103 212.908 232.605 212.908 233.182C212.908 233.772 213.001 234.286 213.186 234.723C213.375 235.161 213.64 235.5 213.982 235.742C214.326 235.984 214.731 236.105 215.195 236.105C215.5 236.105 215.776 236.052 216.025 235.946C216.274 235.84 216.484 235.688 216.656 235.489C216.829 235.29 216.951 235.051 217.024 234.773H218.198C218.131 235.223 217.967 235.629 217.705 235.991C217.447 236.349 217.104 236.634 216.676 236.846C216.252 237.055 215.758 237.159 215.195 237.159ZM223.015 237.159C222.299 237.159 221.683 236.99 221.166 236.652C220.649 236.314 220.251 235.848 219.972 235.255C219.694 234.662 219.555 233.984 219.555 233.222C219.555 232.446 219.697 231.762 219.982 231.168C220.271 230.572 220.672 230.106 221.185 229.771C221.703 229.433 222.306 229.264 222.995 229.264C223.532 229.264 224.016 229.364 224.447 229.562C224.878 229.761 225.231 230.04 225.506 230.398C225.781 230.756 225.952 231.173 226.018 231.651H224.845C224.755 231.303 224.556 230.994 224.248 230.726C223.943 230.454 223.532 230.318 223.015 230.318C222.558 230.318 222.157 230.437 221.812 230.676C221.47 230.911 221.204 231.245 221.011 231.675C220.823 232.103 220.728 232.605 220.728 233.182C220.728 233.772 220.821 234.286 221.006 234.723C221.195 235.161 221.461 235.5 221.802 235.742C222.147 235.984 222.551 236.105 223.015 236.105C223.32 236.105 223.597 236.052 223.845 235.946C224.094 235.84 224.304 235.688 224.477 235.489C224.649 235.29 224.772 235.051 224.845 234.773H226.018C225.952 235.223 225.787 235.629 225.526 235.991C225.267 236.349 224.924 236.634 224.497 236.846C224.072 237.055 223.578 237.159 223.015 237.159ZM230.935 237.159C230.199 237.159 229.564 236.997 229.031 236.672C228.5 236.344 228.091 235.886 227.803 235.3C227.518 234.71 227.375 234.024 227.375 233.241C227.375 232.459 227.518 231.77 227.803 231.173C228.091 230.573 228.492 230.106 229.006 229.771C229.523 229.433 230.126 229.264 230.815 229.264C231.213 229.264 231.606 229.33 231.994 229.463C232.381 229.596 232.734 229.811 233.053 230.109C233.371 230.404 233.624 230.795 233.813 231.283C234.002 231.77 234.097 232.37 234.097 233.082V233.58H228.21V232.565H232.903C232.903 232.134 232.817 231.75 232.645 231.412C232.476 231.074 232.234 230.807 231.919 230.612C231.608 230.416 231.24 230.318 230.815 230.318C230.348 230.318 229.944 230.434 229.602 230.666C229.264 230.895 229.004 231.193 228.822 231.561C228.64 231.929 228.548 232.323 228.548 232.744V233.42C228.548 233.997 228.648 234.486 228.847 234.887C229.049 235.285 229.329 235.588 229.687 235.797C230.045 236.002 230.461 236.105 230.935 236.105C231.243 236.105 231.521 236.062 231.77 235.976C232.022 235.886 232.239 235.754 232.421 235.578C232.604 235.399 232.744 235.177 232.844 234.912L233.977 235.23C233.858 235.615 233.658 235.953 233.376 236.244C233.094 236.533 232.746 236.758 232.332 236.92C231.917 237.08 231.452 237.159 230.935 237.159ZM241.291 231.074L240.237 231.372C240.17 231.196 240.073 231.026 239.943 230.86C239.817 230.691 239.645 230.552 239.426 230.442C239.207 230.333 238.927 230.278 238.586 230.278C238.119 230.278 237.729 230.386 237.418 230.602C237.109 230.814 236.955 231.084 236.955 231.412C236.955 231.704 237.061 231.934 237.274 232.103C237.486 232.272 237.817 232.413 238.268 232.526L239.401 232.804C240.084 232.97 240.593 233.223 240.928 233.565C241.262 233.903 241.43 234.339 241.43 234.872C241.43 235.31 241.304 235.701 241.052 236.045C240.803 236.39 240.455 236.662 240.008 236.861C239.56 237.06 239.04 237.159 238.447 237.159C237.668 237.159 237.023 236.99 236.513 236.652C236.002 236.314 235.679 235.82 235.543 235.17L236.657 234.892C236.763 235.303 236.964 235.611 237.259 235.817C237.557 236.022 237.946 236.125 238.427 236.125C238.974 236.125 239.408 236.009 239.729 235.777C240.054 235.542 240.217 235.26 240.217 234.932C240.217 234.667 240.124 234.445 239.938 234.266C239.753 234.083 239.468 233.947 239.083 233.858L237.81 233.56C237.111 233.394 236.597 233.137 236.269 232.789C235.944 232.438 235.782 231.999 235.782 231.472C235.782 231.041 235.903 230.66 236.145 230.328C236.39 229.997 236.723 229.737 237.144 229.548C237.569 229.359 238.049 229.264 238.586 229.264C239.342 229.264 239.935 229.43 240.366 229.761C240.8 230.093 241.108 230.53 241.291 231.074ZM248.605 231.074L247.551 231.372C247.485 231.196 247.387 231.026 247.258 230.86C247.132 230.691 246.959 230.552 246.741 230.442C246.522 230.333 246.242 230.278 245.9 230.278C245.433 230.278 245.044 230.386 244.732 230.602C244.424 230.814 244.27 231.084 244.27 231.412C244.27 231.704 244.376 231.934 244.588 232.103C244.8 232.272 245.132 232.413 245.582 232.526L246.716 232.804C247.399 232.97 247.907 233.223 248.242 233.565C248.577 233.903 248.744 234.339 248.744 234.872C248.744 235.31 248.618 235.701 248.366 236.045C248.118 236.39 247.77 236.662 247.322 236.861C246.875 237.06 246.355 237.159 245.761 237.159C244.982 237.159 244.338 236.99 243.827 236.652C243.317 236.314 242.994 235.82 242.858 235.17L243.972 234.892C244.078 235.303 244.278 235.611 244.573 235.817C244.871 236.022 245.261 236.125 245.741 236.125C246.288 236.125 246.722 236.009 247.044 235.777C247.369 235.542 247.531 235.26 247.531 234.932C247.531 234.667 247.438 234.445 247.253 234.266C247.067 234.083 246.782 233.947 246.398 233.858L245.125 233.56C244.426 233.394 243.912 233.137 243.584 232.789C243.259 232.438 243.097 231.999 243.097 231.472C243.097 231.041 243.217 230.66 243.459 230.328C243.705 229.997 244.038 229.737 244.459 229.548C244.883 229.359 245.364 229.264 245.9 229.264C246.656 229.264 247.249 229.43 247.68 229.761C248.114 230.093 248.423 230.53 248.605 231.074ZM253.911 229.364V230.358H249.794V229.364H253.911ZM251.027 237V228.31C251.027 227.872 251.13 227.508 251.336 227.216C251.541 226.924 251.808 226.705 252.136 226.56C252.464 226.414 252.811 226.341 253.175 226.341C253.464 226.341 253.699 226.364 253.881 226.411C254.063 226.457 254.199 226.5 254.289 226.54L253.951 227.554C253.891 227.534 253.808 227.509 253.702 227.479C253.599 227.45 253.464 227.435 253.294 227.435C252.907 227.435 252.627 227.532 252.454 227.728C252.285 227.924 252.201 228.21 252.201 228.588V237H251.027ZM260.368 233.878V229.364H261.541V237H260.368V235.707H260.288C260.109 236.095 259.831 236.425 259.453 236.697C259.075 236.965 258.598 237.099 258.021 237.099C257.544 237.099 257.12 236.995 256.748 236.786C256.377 236.574 256.086 236.256 255.873 235.832C255.661 235.404 255.555 234.866 255.555 234.216V229.364H256.729V234.136C256.729 234.693 256.884 235.137 257.196 235.469C257.511 235.8 257.912 235.966 258.399 235.966C258.691 235.966 258.987 235.891 259.289 235.742C259.594 235.593 259.849 235.364 260.055 235.056C260.263 234.748 260.368 234.355 260.368 233.878ZM264.863 226.818V237H263.69V226.818H264.863ZM268.186 226.818V237H267.012V226.818H268.186ZM271.09 239.864C270.891 239.864 270.714 239.847 270.558 239.814C270.403 239.784 270.295 239.754 270.235 239.724L270.533 238.69C270.819 238.763 271.07 238.79 271.289 238.77C271.508 238.75 271.702 238.652 271.871 238.477C272.043 238.304 272.201 238.024 272.343 237.636L272.562 237.04L269.738 229.364H271.011L273.119 235.449H273.198L275.306 229.364H276.579L273.337 238.114C273.192 238.508 273.011 238.835 272.796 239.093C272.58 239.355 272.33 239.549 272.045 239.675C271.763 239.801 271.445 239.864 271.09 239.864ZM278.504 237.08C278.259 237.08 278.048 236.992 277.873 236.816C277.697 236.64 277.609 236.43 277.609 236.185C277.609 235.939 277.697 235.729 277.873 235.553C278.048 235.378 278.259 235.29 278.504 235.29C278.749 235.29 278.96 235.378 279.136 235.553C279.311 235.729 279.399 235.939 279.399 236.185C279.399 236.347 279.358 236.496 279.275 236.632C279.195 236.768 279.088 236.877 278.952 236.96C278.819 237.04 278.67 237.08 278.504 237.08Z" fill="#3D3D3D"/>
<rect x="43" y="294" width="390" height="68" rx="20" fill="#2D5489"/>
<path d="M210.787 326.326H208.397C208.329 325.934 208.203 325.587 208.02 325.284C207.836 324.977 207.608 324.717 207.336 324.504C207.063 324.291 206.752 324.131 206.403 324.025C206.057 323.914 205.684 323.859 205.284 323.859C204.572 323.859 203.942 324.038 203.392 324.396C202.842 324.749 202.412 325.269 202.101 325.955C201.79 326.637 201.634 327.47 201.634 328.455C201.634 329.456 201.79 330.3 202.101 330.986C202.416 331.668 202.846 332.183 203.392 332.533C203.942 332.878 204.57 333.05 205.278 333.05C205.67 333.05 206.036 332.999 206.377 332.897C206.722 332.79 207.031 332.635 207.304 332.43C207.581 332.226 207.813 331.974 208.001 331.676C208.192 331.378 208.324 331.037 208.397 330.653L210.787 330.666C210.698 331.288 210.504 331.872 210.206 332.418C209.912 332.963 209.526 333.445 209.049 333.862C208.572 334.276 208.013 334.599 207.374 334.834C206.735 335.064 206.025 335.179 205.246 335.179C204.095 335.179 203.068 334.913 202.165 334.38C201.261 333.847 200.55 333.078 200.03 332.072C199.51 331.067 199.25 329.861 199.25 328.455C199.25 327.044 199.512 325.838 200.036 324.837C200.56 323.831 201.274 323.062 202.177 322.529C203.081 321.996 204.104 321.73 205.246 321.73C205.974 321.73 206.652 321.832 207.278 322.037C207.905 322.241 208.463 322.542 208.953 322.938C209.443 323.33 209.846 323.812 210.161 324.383C210.481 324.95 210.689 325.597 210.787 326.326ZM217.14 335.192C216.181 335.192 215.35 334.981 214.647 334.559C213.944 334.137 213.398 333.547 213.01 332.788C212.627 332.03 212.435 331.143 212.435 330.129C212.435 329.115 212.627 328.227 213.01 327.464C213.398 326.701 213.944 326.109 214.647 325.687C215.35 325.265 216.181 325.054 217.14 325.054C218.098 325.054 218.929 325.265 219.632 325.687C220.336 326.109 220.879 326.701 221.262 327.464C221.65 328.227 221.844 329.115 221.844 330.129C221.844 331.143 221.65 332.03 221.262 332.788C220.879 333.547 220.336 334.137 219.632 334.559C218.929 334.981 218.098 335.192 217.14 335.192ZM217.152 333.338C217.672 333.338 218.107 333.195 218.456 332.91C218.806 332.62 219.066 332.232 219.236 331.746C219.411 331.261 219.498 330.719 219.498 330.123C219.498 329.522 219.411 328.979 219.236 328.493C219.066 328.003 218.806 327.613 218.456 327.323C218.107 327.033 217.672 326.888 217.152 326.888C216.62 326.888 216.176 327.033 215.823 327.323C215.473 327.613 215.211 328.003 215.037 328.493C214.866 328.979 214.781 329.522 214.781 330.123C214.781 330.719 214.866 331.261 215.037 331.746C215.211 332.232 215.473 332.62 215.823 332.91C216.176 333.195 216.62 333.338 217.152 333.338ZM226.122 329.247V335H223.808V325.182H226.02V326.85H226.135C226.361 326.3 226.721 325.864 227.215 325.54C227.714 325.216 228.329 325.054 229.062 325.054C229.74 325.054 230.33 325.199 230.833 325.489C231.34 325.778 231.732 326.198 232.009 326.748C232.29 327.298 232.429 327.964 232.425 328.749V335H230.111V329.107C230.111 328.45 229.94 327.937 229.599 327.566C229.263 327.195 228.796 327.01 228.199 327.01C227.795 327.01 227.434 327.099 227.119 327.278C226.808 327.453 226.563 327.707 226.384 328.039C226.209 328.371 226.122 328.774 226.122 329.247ZM239.68 325.182V326.972H234.035V325.182H239.68ZM235.429 322.83H237.743V332.047C237.743 332.358 237.79 332.597 237.883 332.763C237.981 332.925 238.109 333.036 238.267 333.095C238.425 333.155 238.599 333.185 238.791 333.185C238.936 333.185 239.068 333.174 239.187 333.153C239.311 333.131 239.405 333.112 239.469 333.095L239.858 334.904C239.735 334.947 239.558 334.994 239.328 335.045C239.102 335.096 238.825 335.126 238.497 335.134C237.917 335.151 237.395 335.064 236.931 334.872C236.466 334.676 236.098 334.374 235.825 333.964C235.557 333.555 235.425 333.044 235.429 332.43V322.83ZM241.615 335V325.182H243.929V335H241.615ZM242.778 323.788C242.412 323.788 242.096 323.667 241.832 323.424C241.568 323.177 241.436 322.881 241.436 322.536C241.436 322.186 241.568 321.89 241.832 321.647C242.096 321.4 242.412 321.276 242.778 321.276C243.149 321.276 243.464 321.4 243.724 321.647C243.988 321.89 244.12 322.186 244.12 322.536C244.12 322.881 243.988 323.177 243.724 323.424C243.464 323.667 243.149 323.788 242.778 323.788ZM248.622 329.247V335H246.308V325.182H248.52V326.85H248.635C248.861 326.3 249.221 325.864 249.715 325.54C250.214 325.216 250.829 325.054 251.562 325.054C252.24 325.054 252.83 325.199 253.333 325.489C253.84 325.778 254.232 326.198 254.509 326.748C254.79 327.298 254.929 327.964 254.925 328.749V335H252.611V329.107C252.611 328.45 252.44 327.937 252.099 327.566C251.763 327.195 251.296 327.01 250.699 327.01C250.295 327.01 249.934 327.099 249.619 327.278C249.308 327.453 249.063 327.707 248.884 328.039C248.709 328.371 248.622 328.774 248.622 329.247ZM263.535 330.871V325.182H265.849V335H263.605V333.255H263.503C263.281 333.805 262.917 334.254 262.41 334.604C261.907 334.953 261.287 335.128 260.55 335.128C259.906 335.128 259.337 334.985 258.843 334.7C258.353 334.41 257.969 333.99 257.692 333.44C257.415 332.886 257.277 332.217 257.277 331.433V325.182H259.591V331.075C259.591 331.697 259.761 332.192 260.102 332.558C260.443 332.925 260.89 333.108 261.444 333.108C261.785 333.108 262.116 333.025 262.435 332.859C262.755 332.692 263.017 332.445 263.221 332.117C263.43 331.785 263.535 331.369 263.535 330.871ZM272.575 335.192C271.59 335.192 270.74 334.987 270.024 334.578C269.313 334.165 268.765 333.581 268.381 332.827C267.998 332.068 267.806 331.175 267.806 330.148C267.806 329.138 267.998 328.252 268.381 327.489C268.769 326.722 269.31 326.126 270.005 325.7C270.7 325.269 271.516 325.054 272.453 325.054C273.058 325.054 273.629 325.152 274.166 325.348C274.707 325.54 275.185 325.838 275.598 326.243C276.016 326.648 276.344 327.163 276.582 327.79C276.821 328.412 276.94 329.153 276.94 330.014V330.724H268.893V329.164H274.722C274.718 328.721 274.622 328.327 274.435 327.982C274.247 327.632 273.985 327.357 273.648 327.157C273.316 326.957 272.928 326.857 272.485 326.857C272.012 326.857 271.597 326.972 271.239 327.202C270.881 327.428 270.602 327.726 270.401 328.097C270.205 328.463 270.105 328.866 270.101 329.305V330.666C270.101 331.237 270.205 331.727 270.414 332.136C270.623 332.541 270.915 332.852 271.29 333.07C271.665 333.283 272.104 333.389 272.607 333.389C272.943 333.389 273.248 333.342 273.521 333.249C273.793 333.151 274.03 333.008 274.23 332.82C274.43 332.633 274.582 332.401 274.684 332.124L276.844 332.366C276.708 332.937 276.448 333.436 276.065 333.862C275.685 334.284 275.2 334.612 274.607 334.847C274.015 335.077 273.337 335.192 272.575 335.192Z" fill="white"/>
</svg>
