<svg width="70" height="29" viewBox="0 0 70 29" fill="none" xmlns="http://www.w3.org/2000/svg">
<path fill-rule="evenodd" clip-rule="evenodd" d="M32.3154 22.6427V14.2056H36.6699C38.4543 14.2056 39.9604 13.6077 41.1882 12.4285L41.4828 12.1296C43.7256 9.6881 43.5783 5.88475 41.1882 3.626C39.9931 2.43019 38.3561 1.78245 36.6699 1.81567H29.6797V22.6427H32.3154ZM32.3144 11.6477V4.37321H36.7351C37.6848 4.37321 38.5853 4.7386 39.2566 5.40294C40.681 6.79805 40.7138 9.12324 39.3384 10.5682C38.6671 11.2823 37.7175 11.681 36.7351 11.6477H32.3144ZM53.7795 9.50536C52.6499 8.45902 51.1111 7.92755 49.163 7.92755C46.6583 7.92755 44.7757 8.85763 43.5315 10.7012L45.8561 12.1793C46.7074 10.9171 47.8697 10.286 49.3431 10.286C50.2762 10.286 51.1766 10.6347 51.8805 11.2659C52.568 11.8638 52.9609 12.7274 52.9609 13.6409V14.2554C51.946 13.6907 50.6691 13.3918 49.0975 13.3918C47.264 13.3918 45.7907 13.8236 44.6938 14.7038C43.597 15.5841 43.0404 16.7467 43.0404 18.2248C43.0077 19.5701 43.5806 20.849 44.5956 21.7126C45.627 22.6427 46.9366 23.1077 48.4754 23.1077C50.2925 23.1077 51.7332 22.2939 52.83 20.6663H52.9446V22.6427H55.4656V13.8568C55.4656 12.0132 54.909 10.5517 53.7795 9.50536ZM46.6258 20.0186C46.0855 19.62 45.758 18.9723 45.758 18.2747C45.758 17.4941 46.1182 16.8464 46.8222 16.3315C47.5427 15.8167 48.4432 15.5509 49.5074 15.5509C50.981 15.5343 52.1271 15.8665 52.9458 16.5308C52.9458 17.6602 52.5037 18.6401 51.6359 19.4705C50.85 20.2677 49.7858 20.7162 48.6724 20.7162C47.9356 20.7328 47.2152 20.4837 46.6258 20.0186ZM61.1285 28.9041L69.9358 8.39258H67.071L62.9947 18.6234H62.9456L58.7711 8.39258H55.9063L61.6851 21.7292L58.411 28.9041H61.1285Z" fill="#3C4043"/>
<path d="M23.2181 12.3789C23.2181 11.5651 23.1526 10.7513 23.0217 9.9541H11.9061V14.5547H18.2742C18.0123 16.0328 17.161 17.3615 15.9169 18.1919V21.1815H19.7148C21.9412 19.1054 23.2181 16.0328 23.2181 12.3789Z" fill="#4285F4"/>
<path d="M11.905 24.0714C15.0809 24.0714 17.7656 23.0085 19.7137 21.1815L15.9158 18.192C14.8517 18.9228 13.4929 19.338 11.905 19.338C8.82733 19.338 6.22442 17.2287 5.2913 14.4053H1.37875V17.4945C3.37595 21.5303 7.45221 24.0714 11.905 24.0714Z" fill="#34A853"/>
<path d="M5.29293 14.4051C4.80173 12.9269 4.80173 11.3159 5.29293 9.82111V6.74854H1.37975C-0.306679 10.1201 -0.306679 14.1061 1.37975 17.4776L5.29293 14.4051Z" fill="#FBBC04"/>
<path d="M11.905 4.88844C13.5911 4.85523 15.2118 5.50296 16.4232 6.68216L19.7956 3.26081C17.651 1.23457 14.8353 0.121803 11.905 0.15502C7.45221 0.15502 3.37595 2.71273 1.37875 6.7486L5.2913 9.83778C6.22442 6.99773 8.82733 4.88844 11.905 4.88844Z" fill="#EA4335"/>
</svg>
