<svg width="101" height="69" viewBox="0 0 101 69" fill="none" xmlns="http://www.w3.org/2000/svg">
<rect x="0.300781" width="100.05" height="69" rx="10.35" fill="white"/>
<path fill-rule="evenodd" clip-rule="evenodd" d="M49.6878 48.3853C46.2838 51.2544 41.8682 52.9864 37.0433 52.9864C26.2768 52.9864 17.5488 44.3623 17.5488 33.7239C17.5488 23.0855 26.2768 14.4614 37.0433 14.4614C41.8682 14.4614 46.2838 16.1934 49.6878 19.0625C53.0919 16.1934 57.5074 14.4614 62.3324 14.4614C73.0989 14.4614 81.8268 23.0855 81.8268 33.7239C81.8268 44.3623 73.0989 52.9864 62.3324 52.9864C57.5074 52.9864 53.0919 51.2544 49.6878 48.3853Z" fill="#ED0006"/>
<path fill-rule="evenodd" clip-rule="evenodd" d="M49.6899 48.3852C53.8818 44.8521 56.5398 39.5947 56.5398 33.7239C56.5398 27.8531 53.8818 22.5957 49.6899 19.0626C53.094 16.1935 57.5096 14.4614 62.3346 14.4614C73.1011 14.4614 81.829 23.0855 81.829 33.7239C81.829 44.3623 73.1011 52.9864 62.3346 52.9864C57.5096 52.9864 53.094 51.2544 49.6899 48.3852Z" fill="#F9A000"/>
<path fill-rule="evenodd" clip-rule="evenodd" d="M49.6898 48.3853C45.4979 44.8522 42.8398 39.5948 42.8398 33.7239C42.8398 27.853 45.4979 22.5956 49.6898 19.0625C53.8817 22.5956 56.5397 27.853 56.5397 33.7239C56.5397 39.5948 53.8817 44.8522 49.6898 48.3853Z" fill="#FF5E00"/>
</svg>
