<svg width="72" height="31" viewBox="0 0 72 31" fill="none" xmlns="http://www.w3.org/2000/svg">
<path fill-rule="evenodd" clip-rule="evenodd" d="M38.7702 4.40809L33.8047 5.50509V1.36087L38.7702 0.28418V4.40809ZM49.0982 6.70361C47.1594 6.70361 45.9131 7.6381 45.2207 8.28817L44.9635 7.02865H40.6113V30.7158L45.557 29.6391L45.5768 23.89C46.289 24.4182 47.3375 25.1698 49.0784 25.1698C52.6195 25.1698 55.8441 22.2445 55.8441 15.8047C55.8243 9.91336 52.5601 6.70361 49.0982 6.70361ZM47.9108 20.7005C46.7436 20.7005 46.0512 20.2739 45.5764 19.7457L45.5566 12.2089C46.071 11.6198 46.7832 11.2135 47.9108 11.2135C49.711 11.2135 50.9573 13.2856 50.9573 15.9469C50.9573 18.669 49.7308 20.7005 47.9108 20.7005ZM71.433 16.0078C71.433 10.8072 68.9799 6.70361 64.2914 6.70361C59.5831 6.70361 56.7344 10.8072 56.7344 15.9672C56.7344 22.082 60.0974 25.1698 64.9244 25.1698C67.2786 25.1698 69.059 24.6213 70.4043 23.8493V19.7864C69.059 20.4771 67.516 20.9037 65.5575 20.9037C63.6386 20.9037 61.9372 20.213 61.7196 17.8158H71.3934C71.3934 17.7039 71.4005 17.4495 71.4087 17.1565V17.1561C71.4199 16.758 71.433 16.2886 71.433 16.0078ZM61.6601 14.0779C61.6601 11.7823 63.0251 10.8275 64.2714 10.8275C65.4781 10.8275 66.764 11.7823 66.764 14.0779H61.6601ZM33.8047 7.04907H38.7702V24.8245H33.8047V7.04907ZM28.1657 7.04904L28.4822 8.55233C29.6494 6.35833 31.964 6.80526 32.597 7.04904V11.7215C31.9837 11.498 30.0055 11.2136 28.8383 12.7778V24.8245H23.8926V7.04904H28.1657ZM18.5929 2.64069L13.7659 3.69706L13.7461 19.9693C13.7461 22.9758 15.942 25.1902 18.8699 25.1902C20.492 25.1902 21.679 24.8854 22.3319 24.5198V20.3959C21.6988 20.66 18.5731 21.5944 18.5731 18.5878V11.3761H22.3319V7.04901H18.5731L18.5929 2.64069ZM6.90144 11.112C5.85295 11.112 5.2199 11.4167 5.2199 12.209C5.2199 13.074 6.30939 13.4546 7.66102 13.9266C9.86451 14.6962 12.7647 15.7092 12.7769 19.4614C12.7769 23.0978 9.948 25.1902 5.83317 25.1902C4.13184 25.1902 2.27226 24.8448 0.432455 24.0322V19.1973C2.09421 20.1318 4.19119 20.8225 5.83317 20.8225C6.94101 20.8225 7.73232 20.5178 7.73232 19.5833C7.73232 18.6251 6.55129 18.1871 5.12547 17.6584C2.95404 16.8531 0.214844 15.8373 0.214844 12.4528C0.214844 8.85703 2.88553 6.70366 6.90144 6.70366C8.54342 6.70366 10.1656 6.96775 11.8076 7.63814V12.4121C10.3041 11.5792 8.40494 11.112 6.90144 11.112Z" fill="#6461FC"/>
</svg>
