<svg width="37" height="37" viewBox="0 0 37 37" fill="none" xmlns="http://www.w3.org/2000/svg">
<mask id="mask0_228_872" style="mask-type:alpha" maskUnits="userSpaceOnUse" x="0" y="0" width="37" height="37">
<rect width="37" height="37" fill="#D9D9D9"/>
</mask>
<g mask="url(#mask0_228_872)">
<path d="M6.16602 21.5833C6.16602 18.8854 6.80838 16.483 8.0931 14.376C9.37782 12.2691 10.791 10.4962 12.3327 9.05729C13.8743 7.6184 15.2875 6.51997 16.5723 5.76198L18.4993 4.625V9.7125C18.4993 10.6632 18.8205 11.4148 19.4629 11.9672C20.1053 12.5196 20.8247 12.7958 21.6212 12.7958C22.058 12.7958 22.4756 12.7059 22.8738 12.526C23.2721 12.3462 23.6382 12.0507 23.9723 11.6396L24.666 10.7917C26.516 11.8708 28.0063 13.3675 29.1369 15.2818C30.2674 17.196 30.8327 19.2965 30.8327 21.5833C30.8327 23.8444 30.2803 25.9064 29.1754 27.7693C28.0705 29.6321 26.6188 31.1031 24.8202 32.1823C25.257 31.5656 25.5974 30.8911 25.8415 30.1589C26.0856 29.4266 26.2077 28.6493 26.2077 27.8271C26.2077 26.7993 26.015 25.8293 25.6296 24.9172C25.2441 24.005 24.6917 23.1892 23.9723 22.4698L18.4993 17.1125L13.065 22.4698C12.3198 23.2149 11.7546 24.0372 11.3691 24.9365C10.9837 25.8358 10.791 26.7993 10.791 27.8271C10.791 28.6493 10.9131 29.4266 11.1572 30.1589C11.4013 30.8911 11.7417 31.5656 12.1785 32.1823C10.3799 31.1031 8.92817 29.6321 7.82331 27.7693C6.71845 25.9064 6.16602 23.8444 6.16602 21.5833ZM18.4993 21.4292L21.7754 24.6281C22.2122 25.0649 22.5462 25.5531 22.7775 26.0927C23.0087 26.6323 23.1243 27.2104 23.1243 27.8271C23.1243 29.0861 22.6747 30.1589 21.7754 31.0453C20.8761 31.9318 19.7841 32.375 18.4993 32.375C17.2146 32.375 16.1226 31.9318 15.2233 31.0453C14.324 30.1589 13.8743 29.0861 13.8743 27.8271C13.8743 27.2361 13.99 26.6644 14.2212 26.112C14.4525 25.5595 14.7865 25.0649 15.2233 24.6281L18.4993 21.4292Z" fill="white"/>
</g>
</svg>
