<svg width="37" height="37" viewBox="0 0 37 37" fill="none" xmlns="http://www.w3.org/2000/svg">
<mask id="mask0_228_898" style="mask-type:alpha" maskUnits="userSpaceOnUse" x="0" y="0" width="37" height="37">
<rect width="37" height="37" fill="#D9D9D9"/>
</mask>
<g mask="url(#mask0_228_898)">
<path d="M11.7559 9.86662L16.0725 4.27807C16.3809 3.86696 16.747 3.56505 17.171 3.37234C17.5949 3.17964 18.0382 3.08328 18.5007 3.08328C18.9632 3.08328 19.4064 3.17964 19.8303 3.37234C20.2543 3.56505 20.6204 3.86696 20.9288 4.27807L25.2454 9.86662L31.7975 12.0635C32.4656 12.269 32.9923 12.648 33.3777 13.2005C33.7631 13.7529 33.9559 14.3631 33.9559 15.0312C33.9559 15.3395 33.9109 15.6479 33.821 15.9562C33.731 16.2645 33.5833 16.56 33.3777 16.8427L29.1381 22.8552L29.2923 29.176C29.318 30.0753 29.0225 30.8333 28.4059 31.4499C27.7892 32.0666 27.0697 32.375 26.2475 32.375C26.1961 32.375 25.9135 32.3364 25.3996 32.2593L18.5007 30.3322L11.6017 32.2593C11.4732 32.3107 11.3319 32.3428 11.1777 32.3557C11.0236 32.3685 10.8822 32.375 10.7538 32.375C9.93155 32.375 9.21211 32.0666 8.59544 31.4499C7.97878 30.8333 7.68329 30.0753 7.70898 29.176L7.86315 22.8166L3.66211 16.8427C3.45655 16.56 3.30881 16.2645 3.21888 15.9562C3.12895 15.6479 3.08398 15.3395 3.08398 15.0312C3.08398 14.3888 3.27027 13.7914 3.64284 13.239C4.01541 12.6866 4.53572 12.2947 5.20378 12.0635L11.7559 9.86662Z" fill="white"/>
</g>
</svg>
